<svg id="svg" version="1.1" xmlns="http://www.w3.org/2000/svg" xmlns:xlink="http://www.w3.org/1999/xlink" width="400" height="400" viewBox="0, 0, 400,400"><g id="svgg"><path id="path0" d="M28.493 111.200 C 28.493 111.970,28.575 112.285,28.676 111.900 C 28.776 111.515,28.776 110.885,28.676 110.500 C 28.575 110.115,28.493 110.430,28.493 111.200 M122.235 112.344 C 121.924 112.846,121.882 123.085,122.188 123.580 C 122.360 123.859,126.620 124.000,134.837 124.000 L 147.227 124.000 149.313 125.056 C 155.758 128.318,155.232 136.706,148.457 138.736 C 147.425 139.045,142.750 139.200,134.462 139.200 L 122.016 139.200 121.908 157.300 C 121.849 167.255,121.865 175.985,121.944 176.700 L 122.088 178.000 127.344 177.994 C 134.499 177.986,133.765 179.495,134.000 164.315 L 134.200 151.400 141.400 151.167 C 151.134 150.851,156.009 149.327,160.547 145.179 C 167.749 138.596,167.614 124.224,160.289 117.815 C 157.309 115.208,154.157 113.796,148.294 112.441 C 146.023 111.916,122.553 111.829,122.235 112.344 M169.384 112.500 C 169.279 112.775,169.240 127.580,169.297 145.400 L 169.400 177.800 184.600 177.800 L 199.800 177.800 199.911 171.900 L 200.021 166.000 191.243 166.000 C 179.962 166.000,181.200 166.967,181.200 158.157 L 181.200 150.800 193.700 150.795 C 209.753 150.788,208.046 151.502,207.911 144.850 L 207.800 139.400 194.600 139.200 L 181.400 139.000 181.400 131.400 L 181.400 123.800 190.600 123.600 L 199.800 123.400 199.911 117.700 L 200.022 112.000 184.798 112.000 C 172.988 112.000,169.532 112.112,169.384 112.500 M210.667 112.267 C 210.520 112.413,210.400 123.663,210.400 137.267 L 210.400 162.000 216.400 162.000 L 222.400 162.000 222.405 149.300 C 222.411 137.038,222.535 134.800,223.208 134.800 C 223.498 134.800,228.559 141.792,234.211 150.000 C 237.944 155.421,239.101 157.084,242.983 162.600 C 244.996 165.460,247.875 169.600,249.381 171.800 C 253.905 178.409,253.247 178.001,259.375 177.994 C 262.249 177.991,264.826 177.844,265.102 177.669 C 265.500 177.416,265.583 170.570,265.502 144.775 L 265.400 112.200 260.400 112.084 C 257.650 112.021,254.995 112.069,254.500 112.192 L 253.600 112.415 253.600 133.584 C 253.600 145.227,253.456 154.842,253.281 154.950 C 252.711 155.302,252.246 154.716,246.023 145.800 C 242.646 140.960,238.856 135.560,237.603 133.800 C 236.349 132.040,232.580 126.640,229.227 121.800 C 225.874 116.960,222.842 112.775,222.489 112.500 C 221.805 111.967,211.176 111.757,210.667 112.267 M268.670 112.263 C 267.939 112.994,268.387 122.365,269.174 122.786 C 270.383 123.433,306.044 123.348,306.937 122.696 C 307.537 122.257,307.612 121.545,307.513 117.196 L 307.400 112.200 288.170 112.096 C 277.594 112.039,268.819 112.114,268.670 112.263 M335.190 114.276 C 334.712 115.334,333.998 117.100,333.602 118.200 C 333.207 119.300,331.860 122.810,330.609 126.000 C 329.358 129.190,328.058 132.610,327.720 133.600 C 327.382 134.590,326.783 136.120,326.390 137.000 C 325.996 137.880,324.920 140.580,323.998 143.000 C 321.637 149.199,315.606 164.841,315.207 165.800 C 311.991 173.532,310.726 177.307,311.241 177.634 C 311.548 177.828,314.253 177.991,317.251 177.994 C 322.912 178.000,323.238 177.909,323.701 176.200 C 323.820 175.760,324.848 172.790,325.986 169.600 C 330.459 157.058,334.844 144.398,335.086 143.324 C 335.488 141.545,336.715 140.929,337.232 142.247 C 337.821 143.750,341.439 153.970,342.383 156.800 C 343.091 158.919,345.930 166.922,348.486 174.000 C 349.162 175.870,349.913 177.532,350.157 177.694 C 350.845 178.150,361.515 178.061,361.802 177.597 C 362.066 177.170,360.234 172.118,354.625 157.800 C 352.729 152.960,349.999 145.940,348.558 142.200 C 347.118 138.460,345.749 134.950,345.516 134.400 C 344.967 133.103,345.075 133.376,340.727 122.232 C 336.634 111.740,336.453 111.480,335.190 114.276 M28.493 119.200 C 28.493 119.970,28.575 120.285,28.676 119.900 C 28.776 119.515,28.776 118.885,28.676 118.500 C 28.575 118.115,28.493 118.430,28.493 119.200 M70.161 133.743 C 59.974 139.072,64.171 153.388,75.579 152.224 C 87.327 151.027,86.078 132.638,74.262 132.843 C 72.588 132.871,71.276 133.159,70.161 133.743 M73.800 134.216 C 74.240 134.402,75.410 134.571,76.400 134.591 C 78.135 134.626,81.028 135.991,80.055 136.315 C 79.805 136.398,79.600 136.651,79.600 136.876 C 79.600 137.101,79.853 137.188,80.162 137.070 C 82.142 136.310,83.614 143.154,82.200 146.539 C 81.753 147.609,81.430 147.910,80.934 147.719 C 80.490 147.549,80.364 147.618,80.555 147.927 C 81.331 149.183,77.570 151.200,74.452 151.200 C 71.985 151.200,68.800 150.174,68.800 149.379 C 68.800 149.098,68.253 148.627,67.584 148.334 C 66.633 147.916,66.414 147.613,66.581 146.942 C 66.722 146.374,66.573 145.998,66.139 145.832 C 65.064 145.419,65.685 139.889,67.000 138.164 C 67.550 137.443,68.000 136.688,68.000 136.485 C 68.000 136.096,72.426 133.585,72.788 133.769 C 72.905 133.828,73.360 134.029,73.800 134.216 M46.117 135.497 C 47.611 135.574,49.951 135.574,51.317 135.496 C 52.682 135.418,51.460 135.355,48.600 135.355 C 45.740 135.356,44.622 135.420,46.117 135.497 M282.243 136.633 C 281.827 137.715,281.967 175.860,282.390 176.974 C 282.779 177.997,291.180 178.596,293.367 177.757 C 293.933 177.540,294.000 175.316,294.000 156.757 L 294.000 136.000 288.243 136.000 C 283.362 136.000,282.449 136.096,282.243 136.633 M98.100 174.276 C 98.485 174.376,99.115 174.376,99.500 174.276 C 99.885 174.175,99.570 174.093,98.800 174.093 C 98.030 174.093,97.715 174.175,98.100 174.276 M42.100 201.845 C 41.712 202.017,41.600 205.637,41.600 217.996 L 41.600 233.925 52.700 234.076 C 67.118 234.272,68.960 234.991,68.979 240.428 C 68.995 245.152,66.724 246.517,58.494 246.729 C 51.647 246.905,51.882 246.700,52.065 252.331 C 52.211 256.846,52.100 256.732,56.400 256.771 C 65.634 256.854,72.712 254.551,76.006 250.392 C 81.232 243.794,80.058 234.842,73.409 230.588 C 70.751 228.888,70.719 229.331,73.648 227.198 C 77.199 224.612,78.201 222.366,78.197 217.000 C 78.192 209.451,74.391 204.895,66.132 202.542 C 63.808 201.880,43.361 201.287,42.100 201.845 M82.202 201.997 C 81.977 202.361,83.472 204.622,89.347 212.800 C 90.532 214.450,93.861 219.130,96.745 223.200 L 101.988 230.600 101.994 243.276 C 101.998 251.729,102.141 256.040,102.422 256.214 C 103.119 256.644,110.387 256.785,111.430 256.388 L 112.400 256.020 112.400 243.187 L 112.400 230.355 116.300 224.955 C 118.445 221.986,120.467 219.161,120.792 218.678 C 121.118 218.195,122.153 216.729,123.092 215.420 C 124.032 214.111,124.800 212.896,124.800 212.720 C 124.800 212.544,122.145 212.401,118.900 212.402 L 113.000 212.404 110.459 216.003 C 107.628 220.015,107.383 220.250,106.653 219.644 C 106.371 219.410,103.286 215.254,99.798 210.409 L 93.455 201.600 87.951 201.600 C 84.742 201.600,82.345 201.765,82.202 201.997 M128.900 201.865 C 128.084 202.194,128.206 210.240,129.033 210.557 C 130.167 210.992,159.593 210.832,160.426 210.386 C 161.593 209.761,161.593 202.639,160.426 202.014 C 159.643 201.595,129.917 201.454,128.900 201.865 M163.900 202.032 C 163.244 202.414,163.200 204.144,163.200 229.373 L 163.200 256.307 164.100 256.548 C 165.300 256.870,185.954 256.869,187.562 256.548 L 188.824 256.295 188.712 251.648 L 188.600 247.000 181.430 246.890 C 172.533 246.755,173.200 247.297,173.200 240.200 C 173.200 232.971,172.044 233.636,184.833 233.507 L 195.400 233.400 195.400 229.000 L 195.400 224.600 184.833 224.493 C 172.044 224.364,173.200 225.029,173.200 217.800 C 173.200 210.703,172.533 211.245,181.430 211.110 L 188.600 211.000 188.714 206.632 C 188.799 203.407,188.694 202.179,188.314 201.939 C 187.550 201.453,164.743 201.541,163.900 202.032 M215.644 202.146 C 215.319 202.539,215.220 207.307,215.295 219.046 L 215.400 235.400 220.300 235.512 L 225.200 235.625 225.200 219.092 C 225.200 206.767,225.078 202.438,224.720 202.080 C 224.009 201.369,216.242 201.426,215.644 202.146 M293.467 201.867 C 293.320 202.013,293.200 209.289,293.200 218.034 L 293.200 233.934 304.300 234.088 C 317.777 234.275,319.787 234.927,320.623 239.381 C 321.581 244.489,318.055 246.800,309.303 246.800 C 303.406 246.800,303.600 246.621,303.600 252.047 C 303.600 257.118,302.989 256.698,310.092 256.510 C 323.983 256.142,330.578 251.153,330.594 241.000 C 330.602 236.272,327.275 230.400,324.590 230.400 C 323.422 230.400,322.678 228.893,323.602 228.399 C 330.812 224.540,332.170 213.623,326.229 207.273 C 323.937 204.822,320.082 202.988,315.545 202.190 C 312.101 201.584,294.014 201.319,293.467 201.867 M346.969 202.158 C 329.118 205.684,329.004 230.363,346.825 233.236 C 354.965 234.548,357.202 236.152,357.199 240.674 C 357.196 243.881,355.221 246.057,351.500 246.951 L 350.400 247.215 350.400 251.808 L 350.400 256.400 351.700 256.395 C 352.415 256.393,353.900 256.150,355.000 255.855 C 372.477 251.180,370.485 227.212,352.415 224.753 C 344.936 223.735,342.592 221.624,343.421 216.655 C 344.555 209.865,354.731 209.265,356.994 215.855 L 357.524 217.400 362.219 217.513 L 366.915 217.626 366.686 215.412 C 365.909 207.883,357.116 200.743,349.723 201.639 C 349.546 201.661,348.306 201.894,346.969 202.158 M268.078 203.100 C 267.885 203.485,267.172 205.240,266.494 207.000 C 264.729 211.577,261.584 219.702,259.060 226.200 C 257.864 229.280,256.137 233.780,255.223 236.200 C 254.308 238.620,253.394 240.960,253.191 241.400 C 252.989 241.840,252.390 243.370,251.862 244.800 C 251.333 246.230,250.135 249.343,249.201 251.718 C 247.211 256.774,247.056 256.389,251.191 256.663 C 257.043 257.051,257.704 256.807,258.702 253.887 C 259.169 252.519,260.294 249.330,261.201 246.800 C 262.109 244.270,263.648 239.860,264.623 237.000 C 268.342 226.085,269.053 224.751,269.807 227.277 C 269.959 227.785,271.345 231.710,272.888 236.000 C 275.418 243.033,276.359 245.712,278.578 252.200 C 279.637 255.296,280.160 256.396,280.598 256.447 C 282.103 256.622,288.759 256.604,289.463 256.422 C 290.304 256.205,289.257 252.475,286.818 247.000 C 286.461 246.199,284.266 240.559,270.976 206.300 C 269.495 202.482,268.782 201.694,268.078 203.100 M64.085 212.018 C 69.515 214.119,70.007 220.568,64.927 223.053 C 62.339 224.319,53.391 224.989,52.206 224.005 C 51.574 223.480,51.265 212.068,51.867 211.467 C 52.559 210.775,61.969 211.200,64.085 212.018 M315.266 211.816 C 321.383 213.901,321.612 221.191,315.632 223.490 C 314.223 224.032,312.599 224.195,308.600 224.197 L 303.400 224.200 303.200 221.800 C 303.090 220.480,303.057 217.555,303.127 215.300 L 303.253 211.200 308.355 211.200 C 311.901 211.200,314.009 211.388,315.266 211.816 M139.781 222.932 C 139.468 224.182,139.730 255.864,140.057 256.190 C 140.452 256.585,145.994 256.873,147.900 256.597 L 149.600 256.351 149.600 239.175 L 149.600 222.000 144.808 222.000 C 140.122 222.000,140.010 222.021,139.781 222.932 M215.472 247.062 C 214.693 247.840,215.191 256.304,216.028 256.523 C 217.226 256.836,242.954 256.877,244.187 256.568 L 245.225 256.307 245.112 251.654 L 245.000 247.000 230.372 246.895 C 222.326 246.837,215.621 246.912,215.472 247.062 M120.300 281.124 L 119.200 281.253 119.200 288.460 C 119.200 294.046,119.312 295.630,119.700 295.502 C 119.978 295.411,120.254 294.520,120.321 293.501 C 120.534 290.248,122.800 291.221,122.800 294.565 C 122.800 295.203,123.876 295.723,124.180 295.232 C 124.293 295.050,124.100 294.063,123.752 293.040 C 123.291 291.688,123.236 291.038,123.551 290.659 C 124.202 289.875,124.312 282.658,123.685 281.902 C 123.109 281.209,121.918 280.935,120.300 281.124 M131.300 281.056 C 130.926 281.213,130.800 283.079,130.800 288.433 L 130.800 295.600 132.833 295.600 C 135.086 295.600,135.458 294.761,133.367 294.396 C 131.589 294.085,131.528 289.077,133.300 288.873 C 133.905 288.804,134.400 288.501,134.400 288.200 C 134.400 287.899,133.905 287.596,133.300 287.527 C 131.228 287.288,131.594 282.000,133.682 282.000 C 134.131 282.000,134.396 281.786,134.303 281.500 C 134.132 280.979,132.169 280.689,131.300 281.056 M233.776 281.238 C 233.464 281.744,233.937 282.400,234.614 282.400 C 235.074 282.400,235.201 283.598,235.290 288.801 C 235.434 297.186,236.160 297.413,236.311 289.120 C 236.401 284.164,236.543 282.905,237.075 282.317 C 237.434 281.920,237.655 281.531,237.564 281.453 C 237.152 281.095,233.976 280.915,233.776 281.238 M141.777 281.715 C 141.668 281.999,141.629 285.194,141.690 288.815 L 141.800 295.400 143.788 295.400 C 145.509 295.400,145.844 295.265,146.278 294.400 C 146.992 292.976,146.807 282.771,146.051 281.861 C 145.377 281.049,142.076 280.937,141.777 281.715 M153.377 281.715 C 153.268 281.999,153.229 285.194,153.290 288.815 L 153.400 295.400 155.300 295.400 C 157.432 295.400,158.045 294.720,156.200 294.400 C 154.393 294.087,154.302 289.080,156.100 288.873 C 156.705 288.804,157.200 288.501,157.200 288.200 C 157.200 287.899,156.705 287.596,156.100 287.527 C 153.802 287.262,154.372 282.022,156.700 282.006 C 157.195 282.003,157.600 281.820,157.600 281.600 C 157.600 280.991,153.613 281.100,153.377 281.715 M164.177 281.715 C 163.644 283.104,164.204 295.400,164.800 295.400 C 165.269 295.400,165.411 294.814,165.448 292.723 C 165.508 289.446,165.734 288.800,166.821 288.800 C 167.909 288.800,167.630 287.843,166.493 287.675 C 165.506 287.530,165.350 286.983,165.540 284.325 C 165.668 282.525,165.775 282.345,166.840 282.132 C 168.620 281.776,168.217 281.200,166.187 281.200 C 165.078 281.200,164.298 281.400,164.177 281.715 M174.800 288.400 C 174.800 294.036,174.912 295.629,175.300 295.500 C 175.674 295.375,175.800 293.591,175.800 288.400 C 175.800 283.209,175.674 281.425,175.300 281.300 C 174.912 281.171,174.800 282.764,174.800 288.400 M182.977 281.715 C 182.868 281.999,182.829 285.149,182.890 288.716 C 183.017 296.216,183.687 297.708,184.005 291.200 C 184.118 288.890,184.396 286.684,184.622 286.299 C 185.178 285.351,184.428 281.200,183.701 281.200 C 183.412 281.200,183.086 281.432,182.977 281.715 M186.958 281.765 C 186.811 282.149,186.781 283.844,186.893 285.532 C 187.005 287.219,186.952 288.960,186.776 289.400 C 186.563 289.934,186.443 290.000,186.416 289.600 C 186.384 289.119,186.295 289.138,185.970 289.696 C 185.696 290.166,185.698 290.877,185.978 291.896 C 186.204 292.723,186.437 293.850,186.495 294.400 C 186.555 294.976,186.855 295.400,187.200 295.400 C 187.705 295.400,187.817 294.332,187.910 288.630 C 188.013 282.274,187.681 279.880,186.958 281.765 M195.067 281.467 C 194.452 282.081,194.770 295.200,195.400 295.200 C 196.087 295.200,196.116 294.614,196.013 282.700 C 196.001 281.286,195.673 280.860,195.067 281.467 M203.119 287.874 C 202.987 295.313,203.019 295.644,203.833 295.332 C 204.267 295.165,204.400 294.227,204.400 291.334 C 204.400 289.255,204.593 286.786,204.830 285.848 C 205.341 283.818,204.858 281.461,203.894 281.275 C 203.311 281.163,203.225 281.895,203.119 287.874 M207.017 285.679 C 206.567 293.632,206.577 294.738,207.100 295.260 C 208.184 296.343,208.420 294.962,208.310 288.203 C 208.176 279.969,207.422 278.499,207.017 285.679 M215.829 281.829 C 215.483 282.174,215.191 282.669,215.180 282.929 C 214.750 293.087,215.220 295.600,217.552 295.600 C 219.549 295.600,220.134 294.789,220.182 291.955 C 220.237 288.714,220.127 288.400,218.943 288.400 C 218.107 288.400,218.029 288.508,218.386 289.174 C 219.610 291.461,218.329 295.769,216.861 294.301 C 216.105 293.545,216.232 282.550,217.000 282.255 C 218.170 281.806,218.800 282.432,218.800 284.043 C 218.800 285.160,218.969 285.600,219.400 285.600 C 220.373 285.600,220.222 282.147,219.226 281.614 C 218.097 281.010,216.550 281.108,215.829 281.829 M244.301 281.700 C 243.995 282.530,244.177 295.109,244.500 295.433 C 245.083 296.017,245.322 295.181,245.361 292.426 C 245.403 289.400,245.797 288.660,247.254 288.866 C 248.135 288.991,248.214 289.212,248.400 292.105 C 248.510 293.813,248.780 295.208,249.000 295.205 C 249.632 295.197,249.533 281.511,248.900 281.300 C 248.529 281.176,248.400 281.920,248.400 284.179 C 248.400 287.467,248.105 287.914,246.247 287.447 C 245.358 287.224,245.301 287.044,245.389 284.704 C 245.486 282.102,245.335 281.200,244.800 281.200 C 244.627 281.200,244.403 281.425,244.301 281.700 M256.177 281.715 C 256.068 281.999,256.029 285.194,256.090 288.815 L 256.200 295.400 258.100 295.400 C 260.091 295.400,260.798 294.663,258.943 294.520 C 256.688 294.347,256.404 288.800,258.650 288.800 C 259.997 288.800,259.865 287.684,258.500 287.527 C 256.394 287.284,257.091 282.000,259.229 282.000 C 259.653 282.000,260.000 281.820,260.000 281.600 C 260.000 280.995,256.412 281.103,256.177 281.715 M274.400 288.200 C 274.400 294.156,274.490 295.200,275.000 295.200 C 275.510 295.200,275.600 294.156,275.600 288.200 C 275.600 282.244,275.510 281.200,275.000 281.200 C 274.490 281.200,274.400 282.244,274.400 288.200 M282.000 281.504 C 282.000 281.671,282.360 282.032,282.800 282.307 C 283.544 282.772,283.600 283.240,283.600 289.003 C 283.600 294.245,283.692 295.200,284.200 295.200 C 284.707 295.200,284.800 294.250,284.800 289.049 C 284.800 284.069,284.914 282.803,285.400 282.400 C 286.446 281.532,286.058 281.200,284.000 281.200 C 282.900 281.200,282.000 281.337,282.000 281.504 M122.714 286.150 C 122.602 289.746,122.585 289.800,121.600 289.800 C 120.486 289.800,119.816 283.786,120.798 282.603 C 122.104 281.029,122.833 282.379,122.714 286.150 M145.014 282.422 C 145.607 283.382,145.299 293.673,144.658 294.314 C 144.149 294.822,143.931 294.840,143.420 294.417 C 142.775 293.882,142.455 282.878,143.067 282.267 C 143.480 281.853,144.723 281.952,145.014 282.422 " stroke="none" fill="#0e0f10" fill-rule="evenodd"></path><path id="path1" d="M0.000 200.000 L 0.000 400.000 200.000 400.000 L 400.000 400.000 400.000 200.000 L 400.000 0.000 200.000 0.000 L 0.000 0.000 0.000 200.000 M55.387 94.829 C 59.306 96.207,60.783 97.143,63.756 100.137 C 66.533 102.933,66.943 103.521,68.117 106.400 C 68.431 107.170,68.893 108.303,69.144 108.919 C 69.904 110.782,69.725 119.497,68.874 122.077 C 66.916 128.013,60.975 133.975,55.600 135.399 C 39.335 139.706,25.064 128.136,27.251 112.414 C 29.109 99.053,42.894 90.438,55.387 94.829 M93.292 102.983 C 103.031 105.938,107.901 118.438,102.337 126.200 C 97.183 133.390,87.440 135.201,80.328 130.291 C 66.515 120.757,77.262 98.119,93.292 102.983 M85.800 104.621 C 78.253 106.477,73.705 115.028,76.377 122.338 C 80.593 133.872,96.044 134.784,101.600 123.828 C 102.752 121.555,103.099 114.139,102.100 113.140 C 101.825 112.865,101.600 112.326,101.600 111.943 C 101.600 110.776,97.438 106.646,95.117 105.510 C 92.372 104.166,88.969 103.841,85.800 104.621 M149.894 112.054 C 159.651 114.380,164.594 119.072,166.215 127.546 C 169.127 142.762,159.250 151.937,139.905 151.986 L 134.411 152.000 134.305 165.100 L 134.200 178.200 127.800 178.200 L 121.400 178.200 121.400 158.600 L 121.400 139.000 134.200 138.778 C 147.342 138.551,148.148 138.464,150.200 137.054 C 154.296 134.239,153.719 127.713,149.200 125.743 C 148.430 125.407,147.480 124.963,147.088 124.756 C 146.684 124.541,141.118 124.393,134.186 124.412 C 127.481 124.430,121.816 124.334,121.598 124.199 C 121.155 123.925,121.032 112.302,121.467 111.867 C 121.941 111.392,147.833 111.563,149.894 112.054 M200.711 117.305 C 200.868 125.029,201.759 124.363,191.090 124.492 L 182.200 124.600 182.200 131.400 L 182.200 138.200 195.000 138.400 C 202.040 138.510,208.025 138.746,208.300 138.924 C 208.727 139.200,209.107 150.536,208.700 150.886 C 208.645 150.934,202.660 151.069,195.400 151.186 L 182.200 151.400 182.090 158.170 C 182.006 163.319,182.102 165.018,182.490 165.264 C 182.771 165.442,186.896 165.591,191.657 165.594 C 199.179 165.599,200.346 165.683,200.557 166.233 C 200.918 167.172,200.840 177.318,200.467 177.905 C 200.216 178.300,196.727 178.387,184.373 178.305 L 168.600 178.200 168.497 145.400 C 168.440 127.360,168.480 112.373,168.586 112.095 C 168.737 111.699,172.175 111.613,184.689 111.695 L 200.600 111.800 200.711 117.305 M223.037 111.906 C 223.278 112.068,226.788 116.938,230.837 122.729 C 234.887 128.520,239.054 134.460,240.097 135.929 C 241.141 137.398,242.867 139.860,243.934 141.400 C 245.001 142.940,246.487 145.077,247.237 146.148 C 247.987 147.219,249.421 149.339,250.424 150.858 C 251.427 152.377,252.372 153.495,252.524 153.343 C 252.676 153.191,252.800 143.830,252.800 132.541 L 252.800 112.015 253.700 111.793 C 254.195 111.670,257.210 111.622,260.400 111.685 L 266.200 111.800 266.310 144.200 C 266.371 162.020,266.322 177.005,266.202 177.500 C 265.988 178.386,265.889 178.400,259.692 178.394 C 252.339 178.387,253.212 178.782,249.993 174.000 C 248.586 171.910,247.019 169.660,246.511 169.000 C 245.484 167.665,245.184 167.246,244.600 166.328 C 243.652 164.839,238.547 157.468,238.000 156.798 C 237.670 156.395,235.960 153.959,234.200 151.387 C 232.440 148.814,230.342 145.785,229.537 144.655 C 228.732 143.525,227.202 141.303,226.137 139.718 C 223.135 135.252,223.200 135.035,223.200 149.573 C 223.200 161.396,223.148 162.361,222.500 162.544 C 221.269 162.891,210.990 162.765,210.392 162.395 C 209.799 162.028,209.619 112.941,210.207 111.989 C 210.486 111.537,222.373 111.460,223.037 111.906 M308.200 117.600 L 308.200 123.400 288.400 123.505 C 270.790 123.598,268.549 123.540,268.139 122.981 C 267.713 122.401,267.780 113.511,268.221 112.096 C 268.345 111.698,272.558 111.614,288.289 111.696 L 308.200 111.800 308.200 117.600 M337.487 112.100 C 337.841 112.561,338.736 114.777,341.323 121.600 C 341.865 123.030,343.753 127.890,345.517 132.400 C 355.518 157.958,357.216 162.354,357.682 163.900 C 357.964 164.835,358.331 165.600,358.497 165.600 C 358.664 165.600,358.800 165.845,358.800 166.145 C 358.800 166.445,359.319 167.948,359.953 169.486 C 363.832 178.892,364.046 178.400,356.062 178.400 C 348.766 178.400,349.369 178.707,347.818 174.200 C 347.213 172.440,346.565 170.640,346.379 170.200 C 346.193 169.760,345.771 168.590,345.442 167.600 C 345.113 166.610,344.094 163.730,343.177 161.200 C 338.874 149.325,338.294 147.678,337.789 145.909 C 336.647 141.906,336.328 142.019,334.693 147.000 C 334.115 148.760,332.717 152.810,331.586 156.000 C 330.456 159.190,328.649 164.320,327.572 167.400 C 326.495 170.480,325.189 174.170,324.670 175.600 L 323.726 178.200 317.763 178.315 C 309.495 178.474,309.273 178.378,310.641 175.260 C 311.557 173.172,311.770 172.636,313.360 168.400 C 314.144 166.310,316.514 160.190,318.625 154.800 C 320.737 149.410,322.741 144.190,323.080 143.200 C 323.418 142.210,324.013 140.680,324.402 139.800 C 324.791 138.920,325.685 136.670,326.389 134.800 C 327.093 132.930,328.091 130.320,328.607 129.000 C 329.124 127.680,330.469 124.170,331.596 121.200 C 332.724 118.230,333.816 115.487,334.023 115.105 C 334.231 114.723,334.400 114.222,334.400 113.991 C 334.400 112.363,336.635 110.993,337.487 112.100 M79.488 133.241 C 90.756 139.505,82.863 157.166,70.766 152.756 C 62.352 149.687,60.990 137.851,68.545 133.445 C 70.883 132.082,77.191 131.964,79.488 133.241 M294.892 154.900 C 294.952 165.515,294.910 175.100,294.800 176.200 L 294.600 178.200 288.454 178.311 C 284.262 178.386,282.132 178.275,281.754 177.962 C 281.165 177.473,280.885 136.449,281.467 135.867 C 281.613 135.720,284.670 135.600,288.259 135.600 L 294.785 135.600 294.892 154.900 M52.840 142.834 C 64.209 146.461,67.772 160.401,59.407 168.531 C 53.611 174.164,42.343 173.948,37.200 168.105 C 31.699 161.856,32.366 149.700,38.406 146.133 C 39.063 145.745,39.600 145.307,39.600 145.161 C 39.600 144.852,43.412 142.962,44.600 142.682 C 46.175 142.310,51.506 142.408,52.840 142.834 M46.400 144.071 C 30.106 147.478,31.780 171.226,48.312 171.194 C 64.507 171.162,67.479 147.527,51.682 144.397 C 50.427 144.148,49.130 143.889,48.800 143.820 C 48.470 143.751,47.390 143.864,46.400 144.071 M101.113 153.764 C 108.209 157.391,109.575 167.554,103.683 172.877 C 92.517 182.965,77.845 167.755,87.320 155.913 C 89.713 152.921,97.186 151.757,101.113 153.764 M95.831 203.419 C 96.588 204.509,98.208 206.840,99.431 208.600 C 103.408 214.322,106.590 218.538,107.043 218.685 C 107.287 218.764,108.602 217.293,109.965 215.416 C 112.887 211.395,112.612 211.498,119.919 211.669 C 126.743 211.828,126.546 211.645,123.934 215.413 C 119.451 221.881,116.289 226.339,114.302 228.997 L 112.803 231.000 112.802 243.857 C 112.800 255.211,112.726 256.743,112.167 256.957 C 111.013 257.400,102.065 257.229,101.774 256.758 C 101.624 256.515,101.478 250.620,101.451 243.658 L 101.400 231.000 99.200 227.938 C 97.990 226.255,95.032 222.115,92.627 218.738 C 86.371 209.958,84.763 207.717,83.341 205.799 C 80.061 201.373,80.165 201.249,87.283 201.111 C 94.204 200.977,94.120 200.954,95.831 203.419 M66.142 201.829 C 71.024 203.078,76.046 206.538,77.446 209.618 C 77.692 210.158,78.137 211.113,78.436 211.741 C 79.458 213.889,79.122 221.024,77.884 223.449 C 76.907 225.364,73.574 228.800,72.695 228.800 C 72.479 228.800,72.526 229.070,72.800 229.400 C 73.074 229.730,73.535 230.000,73.825 230.000 C 76.592 230.000,79.768 236.126,79.734 241.400 C 79.669 251.753,73.342 256.609,59.307 257.078 C 50.698 257.366,51.200 257.693,51.200 251.800 C 51.200 246.263,50.870 246.548,57.600 246.282 C 65.680 245.964,67.922 244.832,68.302 240.883 C 68.777 235.936,65.726 234.800,51.960 234.800 C 46.518 234.800,41.781 234.691,41.433 234.557 C 40.785 234.309,40.417 203.463,41.043 201.833 C 41.402 200.898,62.490 200.894,66.142 201.829 M161.512 206.248 L 161.624 211.095 160.312 211.359 C 158.255 211.773,129.120 211.585,128.312 211.153 C 127.581 210.762,127.189 202.144,127.871 201.462 C 128.020 201.313,135.625 201.238,144.771 201.296 L 161.400 201.400 161.512 206.248 M189.673 205.300 C 189.743 207.555,189.703 209.940,189.584 210.600 L 189.368 211.800 181.784 212.000 L 174.200 212.200 174.200 217.800 L 174.200 223.400 185.200 223.616 C 191.250 223.735,196.245 223.870,196.300 223.916 C 196.646 224.206,196.333 233.994,195.970 234.218 C 195.734 234.365,190.919 234.464,185.270 234.440 C 179.622 234.416,174.770 234.546,174.488 234.729 C 174.104 234.979,174.004 236.408,174.088 240.431 L 174.200 245.800 181.668 246.000 C 185.775 246.110,189.225 246.290,189.334 246.400 C 189.672 246.740,189.788 256.173,189.461 256.702 C 188.989 257.465,163.479 257.419,162.844 256.653 C 162.366 256.077,162.182 203.033,162.654 201.805 C 162.854 201.282,164.691 201.200,176.216 201.200 L 189.547 201.200 189.673 205.300 M225.904 218.354 C 225.979 230.537,225.881 235.461,225.555 235.854 C 225.084 236.422,216.377 236.673,215.033 236.157 C 214.382 235.908,214.018 203.461,214.647 201.822 C 214.860 201.266,215.638 201.193,220.347 201.289 L 225.800 201.400 225.904 218.354 M270.398 202.900 C 270.832 203.835,272.283 207.480,273.622 211.000 C 276.264 217.943,276.482 218.503,277.118 220.000 C 277.351 220.550,277.998 222.183,278.556 223.630 C 279.113 225.076,280.581 228.856,281.817 232.030 C 283.054 235.203,284.342 238.610,284.680 239.600 C 285.018 240.590,285.613 242.120,286.002 243.000 C 286.390 243.880,287.109 245.680,287.600 247.000 C 288.090 248.320,288.726 249.940,289.013 250.600 C 291.824 257.068,291.878 256.973,285.372 257.111 C 279.214 257.242,279.466 257.394,277.888 252.600 C 277.308 250.840,276.217 247.690,275.464 245.600 C 274.710 243.510,272.991 238.663,271.643 234.830 C 270.295 230.996,269.123 227.790,269.038 227.705 C 268.822 227.488,267.600 230.005,267.600 230.667 C 267.600 230.966,267.429 231.523,267.219 231.905 C 267.009 232.287,266.457 233.770,265.993 235.200 C 265.528 236.630,264.989 238.160,264.795 238.600 C 264.601 239.040,263.276 242.859,261.849 247.087 C 260.423 251.314,259.017 255.274,258.724 255.887 L 258.191 257.000 252.954 257.111 C 246.157 257.256,246.085 257.190,248.018 252.600 C 248.203 252.160,249.279 249.370,250.408 246.400 C 251.537 243.430,252.616 240.640,252.805 240.200 C 252.993 239.760,253.807 237.690,254.614 235.600 C 256.117 231.702,257.632 227.798,260.160 221.303 C 260.952 219.269,261.600 217.512,261.600 217.398 C 261.600 217.284,261.939 216.428,262.353 215.496 C 262.767 214.563,263.328 213.170,263.600 212.400 C 263.871 211.630,264.358 210.401,264.680 209.669 C 265.003 208.938,265.795 206.876,266.440 205.089 C 268.054 200.619,269.078 200.052,270.398 202.900 M317.200 201.771 C 326.711 204.116,331.435 210.008,330.642 218.536 C 330.233 222.936,328.354 226.179,324.871 228.498 C 323.868 229.165,323.886 229.192,326.200 230.434 C 330.146 232.553,332.352 238.814,331.150 244.480 C 329.331 253.053,322.319 257.177,309.533 257.193 C 302.217 257.202,302.800 257.669,302.800 251.800 C 302.800 246.012,302.415 246.403,308.133 246.394 C 317.952 246.379,323.079 241.976,318.716 237.305 C 316.637 235.079,316.267 235.016,304.132 234.800 C 297.935 234.690,292.757 234.492,292.625 234.360 C 292.312 234.045,292.294 202.095,292.607 201.588 C 292.998 200.957,314.545 201.116,317.200 201.771 M354.880 201.643 C 361.208 202.967,366.098 207.964,367.279 214.313 C 367.974 218.053,368.050 218.000,362.029 218.000 L 356.832 218.000 356.349 216.387 C 354.341 209.686,344.000 211.091,344.000 218.065 C 344.000 221.616,346.124 223.203,351.943 223.999 C 372.024 226.746,373.689 253.309,354.001 256.828 C 349.897 257.561,349.887 257.549,349.821 251.860 C 349.763 246.780,349.765 246.773,352.110 246.018 C 360.127 243.435,357.561 235.703,348.195 234.219 C 339.406 232.828,334.595 228.662,333.031 221.088 C 330.500 208.834,341.682 198.882,354.880 201.643 M52.876 211.953 C 52.506 212.181,52.406 213.709,52.488 217.831 L 52.600 223.400 57.400 223.400 C 63.161 223.400,65.496 222.710,66.784 220.626 C 68.318 218.143,67.478 214.715,64.973 213.237 C 62.782 211.944,54.340 211.048,52.876 211.953 M304.198 212.061 C 304.076 212.380,304.026 215.061,304.088 218.020 L 304.200 223.400 308.554 223.514 C 313.636 223.647,316.039 223.039,317.835 221.163 C 320.490 218.393,318.497 213.157,314.437 212.233 C 311.667 211.603,304.420 211.481,304.198 212.061 M150.056 221.677 C 150.615 222.558,150.484 256.156,149.920 256.720 C 149.315 257.325,140.683 257.380,139.574 256.786 C 138.770 256.356,138.323 222.932,139.106 221.760 C 139.787 220.741,149.416 220.667,150.056 221.677 M245.520 246.480 C 246.523 247.483,246.154 256.665,245.100 256.948 C 243.920 257.264,215.855 257.273,215.033 256.957 C 214.223 256.646,214.086 247.274,214.880 246.480 C 215.236 246.124,219.191 246.000,230.200 246.000 C 241.209 246.000,245.164 246.124,245.520 246.480 M123.335 280.775 C 125.112 281.451,125.970 288.708,124.484 290.499 C 124.174 290.872,124.166 291.495,124.453 292.614 C 125.145 295.302,125.090 295.787,124.078 295.931 C 122.823 296.109,122.144 295.451,121.763 293.686 L 121.441 292.200 121.221 294.000 C 120.997 295.827,119.733 296.693,118.740 295.700 C 118.082 295.042,118.165 281.194,118.829 280.774 C 119.577 280.300,122.087 280.301,123.335 280.775 M135.368 280.927 C 136.303 281.611,135.290 282.800,133.771 282.800 C 132.167 282.800,132.290 287.088,133.900 287.273 C 134.691 287.364,135.000 287.625,135.000 288.200 C 135.000 288.775,134.691 289.036,133.900 289.127 C 132.839 289.249,132.800 289.337,132.800 291.602 L 132.800 293.952 134.300 294.076 C 135.492 294.175,135.800 294.364,135.800 295.000 C 135.800 295.902,131.206 296.435,130.253 295.644 C 129.493 295.013,129.645 281.269,130.417 280.781 C 131.290 280.229,134.545 280.325,135.368 280.927 M146.618 281.382 C 147.884 282.647,148.144 293.198,146.954 295.014 C 146.258 296.076,141.570 296.523,140.989 295.582 C 140.494 294.782,140.797 281.050,141.317 280.719 C 142.471 279.986,145.615 280.378,146.618 281.382 M158.200 281.600 C 158.200 282.436,157.987 282.621,156.900 282.725 C 155.016 282.907,154.833 287.059,156.700 287.273 C 158.162 287.442,158.236 288.861,156.800 289.200 C 155.060 289.611,155.294 293.751,157.066 293.923 C 158.291 294.042,159.039 294.890,158.578 295.636 C 158.291 296.099,153.319 296.116,153.034 295.655 C 152.696 295.108,152.636 281.389,152.970 280.849 C 153.618 279.800,158.200 280.458,158.200 281.600 M169.000 281.596 C 169.000 282.389,168.756 282.634,167.806 282.799 C 165.730 283.159,165.494 287.041,167.534 287.277 C 168.841 287.428,169.052 288.905,167.800 289.138 C 166.381 289.401,166.110 289.918,166.308 291.979 C 166.630 295.339,165.032 297.593,163.772 295.555 C 163.429 295.000,163.470 281.333,163.817 280.773 C 164.420 279.797,169.000 280.524,169.000 281.596 M176.292 280.900 C 177.241 282.117,176.683 295.788,175.678 295.931 C 173.911 296.181,173.797 295.701,173.848 288.190 C 173.886 282.650,174.017 281.035,174.448 280.762 C 175.223 280.271,175.837 280.317,176.292 280.900 M185.211 282.100 C 185.982 283.798,185.982 283.799,185.991 282.549 C 186.002 281.058,186.846 280.234,187.990 280.597 C 188.793 280.852,188.814 281.079,188.709 288.330 L 188.600 295.800 187.400 295.800 C 186.316 295.800,186.135 295.607,185.531 293.800 L 184.862 291.800 184.731 293.800 C 184.605 295.726,184.556 295.800,183.400 295.800 L 182.200 295.800 182.091 288.429 C 181.977 280.734,182.040 280.420,183.720 280.406 C 184.181 280.402,184.716 281.009,185.211 282.100 M196.720 280.880 C 197.056 281.216,197.200 283.420,197.200 288.231 C 197.200 295.603,197.039 296.207,195.152 295.931 C 194.265 295.801,193.761 282.157,194.594 280.810 C 194.938 280.253,196.132 280.292,196.720 280.880 M204.826 280.814 C 205.392 281.117,205.600 281.655,205.600 282.814 C 205.600 284.647,206.375 284.999,206.450 283.200 C 206.532 281.226,206.572 281.105,207.289 280.653 C 208.584 279.836,208.792 280.833,208.821 288.016 C 208.837 291.857,208.838 295.225,208.825 295.500 C 208.798 296.042,207.283 296.170,206.544 295.694 C 206.294 295.532,206.002 294.751,205.896 293.957 C 205.522 291.159,204.826 290.745,204.812 293.313 C 204.803 295.077,204.645 295.685,204.146 295.876 C 202.499 296.508,202.327 295.758,202.381 288.210 C 202.439 280.252,202.640 279.644,204.826 280.814 M219.382 280.648 C 220.261 280.986,221.200 282.898,221.200 284.352 C 221.200 286.591,218.727 287.725,218.488 285.596 C 218.066 281.838,217.200 281.844,217.200 285.603 C 217.200 288.223,217.248 288.377,217.934 287.948 C 220.231 286.514,221.791 289.323,221.010 293.486 C 220.280 297.379,214.455 297.016,214.360 293.071 C 214.267 289.245,214.463 281.822,214.665 281.496 C 215.203 280.625,218.008 280.121,219.382 280.648 M238.167 280.643 C 239.060 280.985,238.954 282.297,238.010 282.597 C 237.272 282.831,237.212 283.277,237.110 289.324 L 237.000 295.800 235.800 295.800 L 234.600 295.800 234.490 289.509 C 234.388 283.715,234.317 283.184,233.590 282.795 C 232.821 282.383,232.530 281.203,233.067 280.667 C 233.400 280.333,237.313 280.315,238.167 280.643 M245.760 280.735 C 245.874 280.919,245.999 282.457,246.038 284.154 C 246.143 288.661,247.344 288.469,247.516 283.917 C 247.640 280.661,248.400 279.638,249.819 280.816 C 250.694 281.542,250.675 295.520,249.799 295.856 C 247.952 296.565,247.312 295.753,247.475 292.907 C 247.641 290.010,247.144 288.493,246.392 289.600 C 246.168 289.930,246.005 290.920,246.029 291.800 C 246.147 295.990,246.123 296.063,244.700 295.925 L 243.400 295.800 243.290 288.602 C 243.193 282.185,243.255 281.349,243.867 280.902 C 244.658 280.323,245.461 280.252,245.760 280.735 M260.739 280.754 C 261.720 281.376,261.098 282.590,259.731 282.723 C 258.237 282.868,257.989 283.349,258.281 285.529 C 258.468 286.921,258.652 287.174,259.550 287.278 C 261.027 287.450,261.024 288.951,259.546 289.122 C 257.385 289.373,257.698 293.705,259.892 293.923 C 263.277 294.258,261.570 296.045,258.001 295.903 L 255.402 295.800 255.366 288.600 C 255.346 284.558,255.499 281.181,255.714 280.900 C 256.149 280.333,259.903 280.224,260.739 280.754 M275.926 280.746 C 276.567 281.152,276.711 295.049,276.081 295.679 C 275.867 295.893,275.267 296.007,274.746 295.934 L 273.800 295.800 273.691 288.652 C 273.568 280.657,273.905 279.464,275.926 280.746 M287.238 281.046 C 287.698 281.601,287.635 281.804,286.787 282.490 C 285.832 283.262,285.794 283.488,285.600 289.544 L 285.400 295.800 284.200 295.800 L 283.000 295.800 282.890 289.509 C 282.788 283.715,282.717 283.184,281.990 282.795 C 281.221 282.383,280.930 281.203,281.467 280.667 C 282.051 280.082,286.691 280.387,287.238 281.046 M301.411 283.864 C 303.603 286.091,304.036 286.976,303.100 287.314 C 302.426 287.557,300.400 286.356,300.400 285.714 C 300.400 285.431,300.225 285.200,300.010 285.200 C 299.796 285.200,299.322 284.615,298.956 283.900 C 298.591 283.185,298.053 282.460,297.762 282.289 C 297.471 282.119,297.334 281.717,297.457 281.397 C 297.776 280.564,298.778 281.189,301.411 283.864 M305.078 284.204 C 306.588 286.224,307.003 287.036,306.575 287.131 C 305.721 287.320,301.667 282.694,301.614 281.471 C 301.570 280.440,303.262 281.775,305.078 284.204 M296.152 282.900 C 296.881 283.615,297.951 284.600,298.530 285.090 C 299.502 285.912,299.651 287.200,298.773 287.200 C 298.310 287.200,295.200 284.124,295.200 283.665 C 295.200 283.463,294.930 283.074,294.600 282.800 C 294.270 282.526,294.000 282.144,294.000 281.951 C 294.000 281.251,294.855 281.628,296.152 282.900 M121.200 286.000 C 121.200 288.581,121.309 289.251,121.672 288.888 C 122.241 288.319,122.186 283.626,121.603 283.043 C 121.332 282.772,121.200 283.741,121.200 286.000 M143.600 288.480 C 143.600 292.620,143.720 294.040,144.041 293.719 C 144.554 293.206,145.035 285.389,144.647 283.847 C 144.006 281.290,143.600 283.086,143.600 288.480 M299.200 290.010 C 299.200 290.907,296.479 294.000,295.690 294.000 C 295.004 294.000,295.399 292.534,296.392 291.400 C 296.777 290.960,297.418 290.204,297.817 289.720 C 298.628 288.738,299.200 288.858,299.200 290.010 M303.411 289.218 C 303.743 289.755,302.784 291.204,300.477 293.648 C 298.549 295.690,297.634 295.743,298.452 293.765 C 298.716 293.124,298.948 292.488,298.966 292.350 C 299.127 291.153,302.944 288.462,303.411 289.218 M307.369 289.150 C 307.488 289.342,307.158 289.960,306.637 290.522 C 306.116 291.085,305.099 292.367,304.377 293.372 C 303.655 294.378,302.825 295.200,302.532 295.200 C 301.789 295.200,301.868 294.676,302.787 293.508 C 303.220 292.957,303.474 292.408,303.353 292.286 C 303.231 292.164,303.507 291.864,303.966 291.618 C 304.425 291.373,304.800 291.000,304.800 290.790 C 304.800 289.643,306.860 288.327,307.369 289.150 M217.214 291.487 C 217.202 293.538,217.305 293.934,217.800 293.745 C 218.564 293.451,218.564 291.337,217.800 290.000 C 217.258 289.052,217.228 289.128,217.214 291.487 " stroke="none" fill="#fbfbfb" fill-rule="evenodd"></path><path id="path2" d="M43.800 95.947 C 25.872 99.800,23.306 126.461,40.212 133.230 C 47.522 136.157,51.105 135.911,59.487 131.903 C 61.675 130.857,65.814 125.867,66.541 123.400 C 66.930 122.080,67.507 120.409,67.824 119.686 C 69.152 116.659,68.498 111.872,65.734 104.400 C 65.472 103.692,59.745 98.531,58.358 97.753 C 54.764 95.738,48.429 94.952,43.800 95.947 M298.607 282.388 C 298.311 282.868,299.475 285.200,300.010 285.200 C 300.225 285.200,300.400 285.431,300.400 285.714 C 300.400 286.356,302.426 287.557,303.100 287.314 C 304.006 286.987,303.626 286.152,301.623 284.062 C 299.638 281.993,299.053 281.668,298.607 282.388 M302.329 283.062 C 302.548 283.468,303.208 284.250,303.796 284.800 L 304.865 285.800 304.581 284.600 C 304.241 283.163,304.078 282.974,302.866 282.607 C 302.048 282.360,301.981 282.417,302.329 283.062 M297.055 284.600 C 297.182 284.930,297.446 285.200,297.643 285.200 C 297.839 285.200,297.979 285.335,297.953 285.500 C 297.803 286.447,298.071 287.200,298.557 287.200 C 299.622 287.200,299.586 286.019,298.490 285.003 C 297.267 283.869,296.715 283.714,297.055 284.600 M298.256 289.078 C 298.115 289.218,298.000 289.731,298.000 290.218 C 298.000 290.704,297.730 291.326,297.400 291.600 C 297.070 291.874,296.800 292.373,296.800 292.708 C 296.800 293.112,297.206 292.894,298.000 292.063 C 299.369 290.630,299.619 287.714,298.256 289.078 M300.535 290.600 C 299.502 291.590,298.801 292.400,298.977 292.400 C 299.154 292.400,299.080 292.662,298.815 292.982 C 298.255 293.656,298.554 294.365,299.348 294.249 C 300.581 294.068,303.882 289.980,303.411 289.218 C 302.970 288.503,302.476 288.741,300.535 290.600 M305.300 289.822 C 305.025 290.122,304.800 290.547,304.800 290.769 C 304.800 290.991,304.425 291.373,303.966 291.618 C 303.507 291.864,303.235 292.169,303.362 292.296 C 303.489 292.423,303.389 292.772,303.140 293.072 C 302.782 293.504,302.825 293.565,303.343 293.366 C 303.705 293.228,304.000 292.945,304.000 292.739 C 304.000 292.533,304.460 291.904,305.022 291.342 C 305.584 290.780,305.989 290.086,305.922 289.800 C 305.823 289.379,305.703 289.384,305.300 289.822 " stroke="none" fill="#f59351" fill-rule="evenodd"></path><path id="path3" d="M307.737 116.200 C 307.739 117.960,307.809 118.630,307.893 117.689 C 307.978 116.749,307.977 115.309,307.891 114.489 C 307.805 113.670,307.736 114.440,307.737 116.200 M70.288 134.889 C 69.030 135.565,68.000 136.283,68.000 136.485 C 68.000 136.688,67.550 137.443,67.000 138.164 C 65.673 139.905,65.064 145.420,66.154 145.838 C 66.833 146.098,66.698 147.538,65.949 148.022 C 65.760 148.144,66.369 148.954,67.302 149.822 L 68.999 151.400 67.627 149.906 C 66.872 149.084,66.378 148.289,66.528 148.139 C 66.905 147.762,68.800 148.825,68.800 149.413 C 68.800 150.178,72.031 151.200,74.452 151.200 C 77.570 151.200,81.331 149.183,80.555 147.927 C 80.364 147.618,80.490 147.549,80.934 147.719 C 81.430 147.910,81.753 147.609,82.200 146.539 C 83.614 143.154,82.142 136.310,80.162 137.070 C 79.853 137.188,79.600 137.101,79.600 136.876 C 79.600 136.651,79.805 136.398,80.055 136.315 C 81.028 135.991,78.135 134.626,76.400 134.591 C 74.873 134.560,73.920 134.343,72.788 133.769 C 72.671 133.710,71.546 134.214,70.288 134.889 M82.689 137.700 C 83.144 138.535,83.480 140.289,83.629 142.600 L 83.860 146.200 83.930 142.884 C 83.994 139.830,83.070 136.400,82.182 136.400 C 82.070 136.400,82.299 136.985,82.689 137.700 M222.573 149.200 C 222.573 154.590,222.630 156.795,222.699 154.100 C 222.768 151.405,222.768 146.995,222.699 144.300 C 222.630 141.605,222.573 143.810,222.573 149.200 M121.782 156.600 C 121.782 165.400,121.835 168.943,121.900 164.473 C 121.964 160.004,121.964 152.804,121.899 148.473 C 121.835 144.143,121.782 147.800,121.782 156.600 M64.087 142.400 C 64.083 142.950,64.224 143.850,64.400 144.400 C 64.831 145.744,64.831 144.292,64.400 142.600 C 64.126 141.522,64.094 141.502,64.087 142.400 M82.640 147.640 C 82.172 148.578,82.155 148.770,82.567 148.427 C 83.059 148.019,83.718 146.400,83.392 146.400 C 83.319 146.400,82.980 146.958,82.640 147.640 M73.505 152.683 C 74.002 152.779,74.722 152.775,75.105 152.675 C 75.487 152.575,75.080 152.496,74.200 152.501 C 73.320 152.505,73.007 152.587,73.505 152.683 M91.200 154.032 C 87.886 155.532,86.067 157.847,85.025 161.890 C 84.337 164.560,84.826 168.765,85.682 167.533 C 85.932 167.173,85.968 167.300,85.791 167.927 C 85.492 168.983,87.355 172.199,88.025 171.785 C 88.242 171.650,88.370 171.761,88.310 172.031 C 88.088 173.019,91.908 174.954,94.082 174.954 C 95.361 174.954,95.826 175.062,95.351 175.249 C 94.080 175.748,95.599 175.620,98.140 175.013 C 108.477 172.543,109.768 158.747,100.120 153.850 C 98.237 152.894,93.500 152.991,91.200 154.032 M99.500 174.276 C 99.115 174.376,98.485 174.376,98.100 174.276 C 97.715 174.175,98.030 174.093,98.800 174.093 C 99.570 174.093,99.885 174.175,99.500 174.276 M307.500 256.689 C 308.215 256.778,309.385 256.778,310.100 256.689 C 310.815 256.601,310.230 256.528,308.800 256.528 C 307.370 256.528,306.785 256.601,307.500 256.689 M196.140 288.000 C 196.140 289.870,196.209 290.635,196.293 289.700 C 196.377 288.765,196.377 287.235,196.293 286.300 C 196.209 285.365,196.140 286.130,196.140 288.000 " stroke="none" fill="#18b465" fill-rule="evenodd"></path><path id="path4" d="M41.355 94.951 C 24.167 101.340,21.912 124.536,37.600 133.582 C 42.814 136.588,48.819 137.194,55.600 135.399 C 60.975 133.975,66.916 128.013,68.874 122.077 C 69.725 119.497,69.904 110.782,69.144 108.919 C 68.893 108.303,68.431 107.170,68.117 106.400 C 66.943 103.521,66.533 102.933,63.756 100.137 C 57.975 94.316,48.785 92.189,41.355 94.951 M54.400 96.293 C 55.610 96.628,57.230 97.214,58.000 97.595 C 58.770 97.977,59.630 98.237,59.910 98.174 C 60.191 98.112,60.225 98.155,59.987 98.271 C 59.503 98.507,64.356 103.063,64.908 102.890 C 65.101 102.830,65.145 102.965,65.006 103.190 C 64.867 103.416,64.922 103.600,65.130 103.600 C 65.337 103.600,65.608 103.915,65.731 104.300 C 65.855 104.685,66.506 106.619,67.178 108.597 C 68.571 112.697,68.843 117.364,67.824 119.686 C 67.058 121.432,65.861 125.522,66.050 125.748 C 66.133 125.847,65.686 126.332,65.058 126.826 C 64.430 127.320,63.132 128.562,62.175 129.585 C 61.217 130.609,60.021 131.645,59.517 131.887 C 55.741 133.699,52.952 134.808,52.055 134.853 C 51.155 134.898,51.205 134.949,52.400 135.200 C 53.261 135.381,51.800 135.490,48.600 135.483 C 45.740 135.477,44.030 135.391,44.800 135.293 C 46.285 135.103,43.208 133.945,40.938 133.840 C 40.464 133.818,40.147 133.686,40.233 133.546 C 40.413 133.255,38.190 132.267,37.356 132.267 C 37.050 132.267,36.800 132.096,36.800 131.887 C 36.800 131.678,35.446 130.166,33.792 128.528 C 32.138 126.890,30.879 125.395,30.996 125.207 C 31.112 125.019,30.944 124.601,30.623 124.280 C 30.301 123.958,30.112 123.622,30.202 123.532 C 30.292 123.442,30.032 122.295,29.626 120.984 C 29.053 119.139,28.854 118.826,28.743 119.600 C 28.664 120.150,28.600 118.204,28.600 115.276 C 28.600 112.348,28.702 110.368,28.826 110.876 C 29.148 112.192,29.606 109.895,29.359 108.200 C 29.216 107.213,29.252 107.142,29.564 107.800 C 29.957 108.627,30.230 107.585,30.021 106.060 C 29.980 105.763,30.131 105.634,30.356 105.773 C 30.861 106.085,32.071 104.319,31.875 103.556 C 31.796 103.250,31.809 103.141,31.904 103.314 C 31.999 103.487,33.041 102.691,34.219 101.545 C 35.398 100.400,36.267 99.309,36.151 99.121 C 36.035 98.934,36.179 98.830,36.470 98.890 C 36.762 98.951,36.955 98.775,36.900 98.500 C 36.845 98.225,36.935 98.021,37.100 98.047 C 37.945 98.181,38.417 97.951,38.158 97.532 C 37.965 97.219,38.085 97.147,38.523 97.315 C 38.883 97.453,39.446 97.297,39.774 96.969 C 40.103 96.640,40.468 96.378,40.586 96.386 C 42.117 96.488,42.575 96.332,41.800 95.973 C 41.161 95.677,41.242 95.643,42.200 95.804 C 42.860 95.915,44.210 95.844,45.200 95.647 C 47.427 95.202,51.485 95.487,54.400 96.293 M85.200 102.971 C 78.101 104.941,73.843 110.932,74.055 118.650 C 74.459 133.287,93.594 138.396,102.337 126.200 C 104.451 123.250,105.086 116.466,103.623 112.462 C 100.944 105.132,92.705 100.888,85.200 102.971 M95.117 105.510 C 97.438 106.646,101.600 110.776,101.600 111.943 C 101.600 112.326,101.825 112.865,102.100 113.140 C 103.099 114.139,102.752 121.555,101.600 123.828 C 96.044 134.784,80.593 133.872,76.377 122.338 C 72.282 111.134,84.392 100.258,95.117 105.510 M121.467 111.867 C 121.032 112.302,121.155 123.925,121.598 124.199 C 121.816 124.334,127.481 124.430,134.186 124.412 C 141.118 124.393,146.684 124.541,147.088 124.756 C 147.480 124.963,148.430 125.407,149.200 125.743 C 153.719 127.713,154.296 134.239,150.200 137.054 C 148.148 138.464,147.342 138.551,134.200 138.778 L 121.400 139.000 121.400 158.600 L 121.400 178.200 127.800 178.200 L 134.200 178.200 134.305 165.100 L 134.411 152.000 139.905 151.986 C 159.250 151.937,169.127 142.762,166.215 127.546 C 164.594 119.072,159.651 114.380,149.894 112.054 C 147.833 111.563,121.941 111.392,121.467 111.867 M168.586 112.095 C 168.480 112.373,168.440 127.360,168.497 145.400 L 168.600 178.200 184.373 178.305 C 196.727 178.387,200.216 178.300,200.467 177.905 C 200.840 177.318,200.918 167.172,200.557 166.233 C 200.346 165.683,199.179 165.599,191.657 165.594 C 186.896 165.591,182.771 165.442,182.490 165.264 C 182.102 165.018,182.006 163.319,182.090 158.170 L 182.200 151.400 195.400 151.186 C 202.660 151.069,208.645 150.934,208.700 150.886 C 209.107 150.536,208.727 139.200,208.300 138.924 C 208.025 138.746,202.040 138.510,195.000 138.400 L 182.200 138.200 182.200 131.400 L 182.200 124.600 191.090 124.492 C 201.759 124.363,200.868 125.029,200.711 117.305 L 200.600 111.800 184.689 111.695 C 172.175 111.613,168.737 111.699,168.586 112.095 M210.207 111.989 C 209.619 112.941,209.799 162.028,210.392 162.395 C 210.990 162.765,221.269 162.891,222.500 162.544 C 223.148 162.361,223.200 161.396,223.200 149.573 C 223.200 135.035,223.135 135.252,226.137 139.718 C 227.202 141.303,228.732 143.525,229.537 144.655 C 230.342 145.785,232.440 148.814,234.200 151.387 C 235.960 153.959,237.670 156.395,238.000 156.798 C 238.547 157.468,243.652 164.839,244.600 166.328 C 245.184 167.246,245.484 167.665,246.511 169.000 C 247.019 169.660,248.586 171.910,249.993 174.000 C 253.212 178.782,252.339 178.387,259.692 178.394 C 265.889 178.400,265.988 178.386,266.202 177.500 C 266.322 177.005,266.371 162.020,266.310 144.200 L 266.200 111.800 260.400 111.685 C 257.210 111.622,254.195 111.670,253.700 111.793 L 252.800 112.015 252.800 132.541 C 252.800 143.830,252.676 153.191,252.524 153.343 C 252.372 153.495,251.427 152.377,250.424 150.858 C 249.421 149.339,247.987 147.219,247.237 146.148 C 246.487 145.077,245.001 142.940,243.934 141.400 C 242.867 139.860,241.141 137.398,240.097 135.929 C 239.054 134.460,234.887 128.520,230.837 122.729 C 226.788 116.938,223.278 112.068,223.037 111.906 C 222.373 111.460,210.486 111.537,210.207 111.989 M268.221 112.096 C 267.780 113.511,267.713 122.401,268.139 122.981 C 268.549 123.540,270.790 123.598,288.400 123.505 L 308.200 123.400 308.200 117.600 L 308.200 111.800 288.289 111.696 C 272.558 111.614,268.345 111.698,268.221 112.096 M335.046 112.586 C 334.691 113.128,334.400 113.761,334.400 113.991 C 334.400 114.222,334.231 114.723,334.023 115.105 C 333.816 115.487,332.724 118.230,331.596 121.200 C 330.469 124.170,329.124 127.680,328.607 129.000 C 328.091 130.320,327.093 132.930,326.389 134.800 C 325.685 136.670,324.791 138.920,324.402 139.800 C 324.013 140.680,323.418 142.210,323.080 143.200 C 322.741 144.190,320.737 149.410,318.625 154.800 C 316.514 160.190,314.144 166.310,313.360 168.400 C 311.770 172.636,311.557 173.172,310.641 175.260 C 309.273 178.378,309.495 178.474,317.763 178.315 L 323.726 178.200 324.670 175.600 C 325.189 174.170,326.495 170.480,327.572 167.400 C 328.649 164.320,330.456 159.190,331.586 156.000 C 332.717 152.810,334.115 148.760,334.693 147.000 C 336.328 142.019,336.647 141.906,337.789 145.909 C 338.294 147.678,338.874 149.325,343.177 161.200 C 344.094 163.730,345.113 166.610,345.442 167.600 C 345.771 168.590,346.193 169.760,346.379 170.200 C 346.565 170.640,347.213 172.440,347.818 174.200 C 349.369 178.707,348.766 178.400,356.062 178.400 C 364.046 178.400,363.832 178.892,359.953 169.486 C 359.319 167.948,358.800 166.445,358.800 166.145 C 358.800 165.845,358.664 165.600,358.497 165.600 C 358.331 165.600,357.964 164.835,357.682 163.900 C 357.216 162.354,355.518 157.958,345.517 132.400 C 343.753 127.890,341.865 123.030,341.323 121.600 C 337.149 110.591,336.739 110.002,335.046 112.586 M148.800 112.552 C 161.228 115.193,167.310 123.218,165.670 134.812 C 164.147 145.582,156.646 150.678,141.600 151.162 L 134.200 151.400 134.000 164.200 C 133.890 171.240,133.654 177.225,133.476 177.500 C 133.243 177.860,131.609 178.000,127.629 178.000 L 122.105 178.000 121.901 176.700 C 121.588 174.695,121.514 142.264,121.819 140.638 L 122.089 139.200 134.516 139.200 C 147.628 139.200,148.632 139.085,151.100 137.299 C 154.339 134.956,154.639 128.931,151.639 126.478 C 148.781 124.142,147.864 124.008,134.724 124.004 C 125.794 124.001,122.368 123.873,122.158 123.533 C 121.831 123.004,121.897 112.891,122.230 112.351 C 122.605 111.745,145.831 111.921,148.800 112.552 M199.911 117.700 L 199.800 123.400 190.600 123.600 L 181.400 123.800 181.400 131.400 L 181.400 139.000 194.600 139.200 L 207.800 139.400 207.911 144.850 C 208.046 151.502,209.753 150.788,193.700 150.795 L 181.200 150.800 181.200 158.157 C 181.200 166.967,179.962 166.000,191.243 166.000 L 200.021 166.000 199.911 171.900 L 199.800 177.800 184.825 177.905 C 176.589 177.963,169.704 177.864,169.526 177.686 C 169.154 177.314,169.033 112.993,169.403 112.395 C 169.557 112.146,175.282 112.000,184.835 112.000 L 200.022 112.000 199.911 117.700 M223.690 113.900 C 224.438 114.945,225.994 117.150,227.149 118.800 C 233.741 128.216,236.849 132.664,239.586 136.600 C 250.791 152.714,252.974 155.668,253.291 155.149 C 253.341 155.067,253.476 145.370,253.591 133.600 L 253.800 112.200 259.600 112.200 L 265.400 112.200 265.400 145.000 L 265.400 177.800 259.844 177.912 C 253.320 178.043,253.951 178.373,250.085 172.805 C 246.795 168.066,245.545 166.275,241.147 160.000 C 239.220 157.250,236.599 153.492,235.322 151.649 C 234.045 149.806,232.190 147.157,231.200 145.761 C 230.210 144.365,228.085 141.328,226.478 139.012 C 224.870 136.695,223.385 134.800,223.178 134.800 C 222.693 134.800,222.704 134.485,222.792 146.107 C 222.833 151.556,222.741 157.361,222.586 159.007 L 222.306 162.000 216.353 162.000 L 210.400 162.000 210.400 137.267 C 210.400 123.663,210.520 112.413,210.667 112.267 C 210.813 112.120,213.498 112.000,216.633 112.000 L 222.332 112.000 223.690 113.900 M307.642 112.878 C 308.377 114.252,307.807 122.047,306.924 122.700 C 306.046 123.349,270.377 123.430,269.174 122.786 C 268.389 122.366,267.938 112.996,268.667 112.267 C 268.813 112.120,277.537 112.000,288.053 112.000 L 307.172 112.000 307.642 112.878 M338.255 115.826 C 338.970 117.572,340.660 121.880,342.009 125.400 C 344.768 132.596,344.801 132.679,345.960 135.296 C 346.422 136.338,346.800 137.318,346.800 137.473 C 346.800 137.738,349.497 144.728,355.492 160.000 C 356.916 163.630,358.626 168.040,359.290 169.800 C 362.733 178.923,363.091 178.002,356.113 177.994 C 353.081 177.991,350.401 177.856,350.157 177.694 C 349.667 177.369,348.574 174.415,341.535 154.400 C 340.878 152.530,340.068 150.283,339.735 149.406 C 339.403 148.529,338.681 146.459,338.130 144.806 C 336.592 140.184,336.171 140.314,334.255 146.000 C 333.699 147.650,332.046 152.420,330.582 156.600 C 329.119 160.780,327.229 166.180,326.383 168.600 C 324.114 175.089,323.424 176.944,323.070 177.500 C 322.694 178.092,312.152 178.211,311.241 177.634 C 310.784 177.345,311.067 176.298,312.781 171.940 C 313.935 169.003,315.569 164.800,316.412 162.600 C 319.353 154.921,325.572 138.819,325.991 137.800 C 326.172 137.360,326.698 136.147,327.160 135.104 C 327.622 134.062,328.000 133.099,328.000 132.966 C 328.000 132.618,335.178 113.989,335.656 113.096 C 336.309 111.876,336.883 112.479,338.255 115.826 M68.545 133.445 C 60.990 137.851,62.352 149.687,70.766 152.756 C 82.863 157.166,90.756 139.505,79.488 133.241 C 77.191 131.964,70.883 132.082,68.545 133.445 M78.716 133.565 C 88.116 138.410,84.751 152.562,74.200 152.556 C 63.694 152.549,60.358 139.198,69.504 133.764 C 71.550 132.549,76.535 132.441,78.716 133.565 M281.467 135.867 C 280.885 136.449,281.165 177.473,281.754 177.962 C 282.132 178.275,284.262 178.386,288.454 178.311 L 294.600 178.200 294.800 176.200 C 294.910 175.100,294.952 165.515,294.892 154.900 L 294.785 135.600 288.259 135.600 C 284.670 135.600,281.613 135.720,281.467 135.867 M294.007 136.900 C 294.168 156.939,293.909 177.410,293.493 177.675 C 293.222 177.847,290.701 177.991,287.890 177.994 L 282.780 178.000 282.390 176.974 C 281.967 175.860,281.827 137.715,282.243 136.633 C 282.695 135.455,293.998 135.712,294.007 136.900 M44.600 142.682 C 43.412 142.962,39.600 144.852,39.600 145.161 C 39.600 145.307,39.063 145.745,38.406 146.133 C 32.366 149.700,31.699 161.856,37.200 168.105 C 43.490 175.251,57.711 173.608,61.979 165.241 C 68.261 152.927,57.942 139.531,44.600 142.682 M51.682 144.397 C 62.241 146.489,65.816 160.330,57.692 167.669 C 47.009 177.321,30.598 166.131,35.840 152.770 C 37.865 147.607,44.614 142.946,48.800 143.820 C 49.130 143.889,50.427 144.148,51.682 144.397 M90.175 154.013 C 87.793 155.266,87.397 155.632,85.863 158.000 C 78.601 169.208,93.748 181.853,103.683 172.877 C 113.742 163.790,102.208 147.683,90.175 154.013 M100.120 153.850 C 109.835 158.781,108.465 172.589,98.020 175.026 C 87.207 177.549,80.135 163.689,88.272 155.924 C 90.977 153.342,97.032 152.282,100.120 153.850 M51.900 171.876 C 51.515 171.976,50.885 171.976,50.500 171.876 C 50.115 171.775,50.430 171.693,51.200 171.693 C 51.970 171.693,52.285 171.775,51.900 171.876 M87.283 201.111 C 80.165 201.249,80.061 201.373,83.341 205.799 C 84.763 207.717,86.371 209.958,92.627 218.738 C 95.032 222.115,97.990 226.255,99.200 227.938 L 101.400 231.000 101.451 243.658 C 101.478 250.620,101.624 256.515,101.774 256.758 C 102.065 257.229,111.013 257.400,112.167 256.957 C 112.726 256.743,112.800 255.211,112.802 243.857 L 112.803 231.000 114.302 228.997 C 116.289 226.339,119.451 221.881,123.934 215.413 C 126.546 211.645,126.743 211.828,119.919 211.669 C 112.612 211.498,112.887 211.395,109.965 215.416 C 108.602 217.293,107.287 218.764,107.043 218.685 C 106.590 218.538,103.408 214.322,99.431 208.600 C 98.208 206.840,96.588 204.509,95.831 203.419 C 94.120 200.954,94.204 200.977,87.283 201.111 M41.043 201.833 C 40.417 203.463,40.785 234.309,41.433 234.557 C 41.781 234.691,46.518 234.800,51.960 234.800 C 65.726 234.800,68.777 235.936,68.302 240.883 C 67.922 244.832,65.680 245.964,57.600 246.282 C 50.870 246.548,51.200 246.263,51.200 251.800 C 51.200 257.693,50.698 257.366,59.307 257.078 C 73.342 256.609,79.669 251.753,79.734 241.400 C 79.768 236.126,76.592 230.000,73.825 230.000 C 73.535 230.000,73.074 229.730,72.800 229.400 C 72.526 229.070,72.479 228.800,72.695 228.800 C 76.764 228.800,80.820 216.749,78.436 211.741 C 78.137 211.113,77.692 210.158,77.446 209.618 C 76.046 206.538,71.024 203.078,66.142 201.829 C 62.490 200.894,41.402 200.898,41.043 201.833 M127.871 201.462 C 127.189 202.144,127.581 210.762,128.312 211.153 C 129.120 211.585,158.255 211.773,160.312 211.359 L 161.624 211.095 161.512 206.248 L 161.400 201.400 144.771 201.296 C 135.625 201.238,128.020 201.313,127.871 201.462 M162.654 201.805 C 162.182 203.033,162.366 256.077,162.844 256.653 C 163.479 257.419,188.989 257.465,189.461 256.702 C 189.788 256.173,189.672 246.740,189.334 246.400 C 189.225 246.290,185.775 246.110,181.668 246.000 L 174.200 245.800 174.088 240.431 C 174.004 236.408,174.104 234.979,174.488 234.729 C 174.770 234.546,179.622 234.416,185.270 234.440 C 190.919 234.464,195.734 234.365,195.970 234.218 C 196.333 233.994,196.646 224.206,196.300 223.916 C 196.245 223.870,191.250 223.735,185.200 223.616 L 174.200 223.400 174.200 217.800 L 174.200 212.200 181.784 212.000 L 189.368 211.800 189.584 210.600 C 189.703 209.940,189.743 207.555,189.673 205.300 L 189.547 201.200 176.216 201.200 C 164.691 201.200,162.854 201.282,162.654 201.805 M214.647 201.822 C 214.018 203.461,214.382 235.908,215.033 236.157 C 216.377 236.673,225.084 236.422,225.555 235.854 C 225.881 235.461,225.979 230.537,225.904 218.354 L 225.800 201.400 220.347 201.289 C 215.638 201.193,214.860 201.266,214.647 201.822 M268.107 201.525 C 267.836 201.698,267.086 203.301,266.440 205.089 C 265.795 206.876,265.003 208.938,264.680 209.669 C 264.358 210.401,263.871 211.630,263.600 212.400 C 263.328 213.170,262.767 214.563,262.353 215.496 C 261.939 216.428,261.600 217.284,261.600 217.398 C 261.600 217.512,260.952 219.269,260.160 221.303 C 257.632 227.798,256.117 231.702,254.614 235.600 C 253.807 237.690,252.993 239.760,252.805 240.200 C 252.616 240.640,251.537 243.430,250.408 246.400 C 249.279 249.370,248.203 252.160,248.018 252.600 C 246.085 257.190,246.157 257.256,252.954 257.111 L 258.191 257.000 258.724 255.887 C 259.017 255.274,260.423 251.314,261.849 247.087 C 263.276 242.859,264.601 239.040,264.795 238.600 C 264.989 238.160,265.528 236.630,265.993 235.200 C 266.457 233.770,267.009 232.287,267.219 231.905 C 267.429 231.523,267.600 230.966,267.600 230.667 C 267.600 230.005,268.822 227.488,269.038 227.705 C 269.123 227.790,270.295 230.996,271.643 234.830 C 272.991 238.663,274.710 243.510,275.464 245.600 C 276.217 247.690,277.308 250.840,277.888 252.600 C 279.466 257.394,279.214 257.242,285.372 257.111 C 291.878 256.973,291.824 257.068,289.013 250.600 C 288.726 249.940,288.090 248.320,287.600 247.000 C 287.109 245.680,286.390 243.880,286.002 243.000 C 285.613 242.120,285.018 240.590,284.680 239.600 C 284.342 238.610,283.054 235.203,281.817 232.030 C 280.581 228.856,279.113 225.076,278.556 223.630 C 277.998 222.183,277.351 220.550,277.118 220.000 C 276.482 218.503,276.264 217.943,273.622 211.000 C 269.850 201.087,269.565 200.599,268.107 201.525 M292.607 201.588 C 292.294 202.095,292.312 234.045,292.625 234.360 C 292.757 234.492,297.935 234.690,304.132 234.800 C 316.267 235.016,316.637 235.079,318.716 237.305 C 323.079 241.976,317.952 246.379,308.133 246.394 C 302.415 246.403,302.800 246.012,302.800 251.800 C 302.800 257.669,302.217 257.202,309.533 257.193 C 322.319 257.177,329.331 253.053,331.150 244.480 C 332.352 238.814,330.146 232.553,326.200 230.434 C 323.886 229.192,323.868 229.165,324.871 228.498 C 328.354 226.179,330.233 222.936,330.642 218.536 C 331.435 210.008,326.711 204.116,317.200 201.771 C 314.545 201.116,292.998 200.957,292.607 201.588 M345.120 201.814 C 336.512 204.169,331.264 212.535,333.031 221.088 C 334.595 228.662,339.406 232.828,348.195 234.219 C 357.561 235.703,360.127 243.435,352.110 246.018 C 349.765 246.773,349.763 246.780,349.821 251.860 C 349.887 257.549,349.897 257.561,354.001 256.828 C 371.268 253.742,372.898 231.494,356.343 224.879 C 355.762 224.646,353.782 224.251,351.943 223.999 C 346.124 223.203,344.000 221.616,344.000 218.065 C 344.000 211.091,354.341 209.686,356.349 216.387 L 356.832 218.000 362.029 218.000 C 368.050 218.000,367.974 218.053,367.279 214.313 C 365.499 204.741,355.348 199.015,345.120 201.814 M66.132 202.536 C 78.569 206.111,83.106 220.428,73.884 227.000 C 71.219 228.899,71.117 229.335,73.100 230.357 C 81.591 234.733,81.110 248.567,72.295 253.525 C 68.382 255.726,63.083 256.827,56.671 256.772 C 52.066 256.732,52.212 256.873,52.065 252.331 C 51.882 246.700,51.647 246.905,58.494 246.729 C 67.686 246.492,71.123 243.424,68.429 237.859 C 66.667 234.220,65.827 234.092,43.100 234.006 L 41.600 234.000 41.600 218.033 C 41.600 205.643,41.712 202.018,42.100 201.848 C 43.384 201.285,63.815 201.870,66.132 202.536 M95.254 204.028 C 96.214 205.364,97.900 207.706,99.000 209.232 C 100.100 210.758,102.165 213.640,103.589 215.637 C 105.013 217.634,106.486 219.432,106.861 219.633 C 107.606 220.031,107.470 220.176,111.000 215.217 L 113.000 212.407 115.000 212.355 C 118.120 212.273,124.582 212.462,124.767 212.641 C 124.859 212.729,124.388 213.566,123.720 214.501 C 123.052 215.435,121.987 216.948,121.353 217.861 C 120.719 218.775,118.445 221.982,116.300 224.987 L 112.400 230.452 112.400 243.391 L 112.400 256.330 110.894 256.584 C 108.868 256.926,103.571 256.757,102.700 256.322 C 102.055 256.000,102.000 254.967,102.000 243.264 L 102.000 230.556 98.695 225.978 C 96.878 223.460,93.551 218.790,91.304 215.600 C 89.056 212.410,86.045 208.180,84.612 206.200 C 81.064 201.296,80.838 201.600,88.021 201.600 L 93.509 201.600 95.254 204.028 M160.720 202.080 C 161.425 202.785,161.369 209.762,160.653 210.356 C 160.261 210.681,155.649 210.780,144.353 210.705 L 128.600 210.600 128.485 206.628 C 128.421 204.444,128.461 202.419,128.572 202.128 C 128.854 201.393,159.986 201.346,160.720 202.080 M188.600 206.400 L 188.600 211.000 181.430 211.110 C 172.533 211.245,173.200 210.703,173.200 217.800 C 173.200 225.029,172.044 224.364,184.833 224.493 L 195.400 224.600 195.513 229.100 L 195.626 233.600 194.513 233.613 C 193.901 233.621,189.106 233.615,183.857 233.600 C 172.181 233.568,173.200 232.937,173.200 240.200 C 173.200 247.297,172.533 246.755,181.430 246.890 L 188.600 247.000 188.712 251.650 C 188.822 256.196,188.804 256.306,187.912 256.545 C 186.730 256.861,165.281 256.864,164.100 256.548 L 163.200 256.307 163.200 229.187 C 163.200 207.867,163.307 202.023,163.700 201.862 C 163.975 201.749,169.690 201.689,176.400 201.729 L 188.600 201.800 188.600 206.400 M224.720 202.080 C 225.078 202.438,225.200 206.767,225.200 219.092 L 225.200 235.625 220.300 235.512 L 215.400 235.400 215.295 219.046 C 215.220 207.307,215.319 202.539,215.644 202.146 C 216.242 201.426,224.009 201.369,224.720 202.080 M317.766 202.550 C 326.037 204.906,329.791 209.425,329.769 217.000 C 329.756 221.675,327.064 227.546,324.906 227.609 C 324.738 227.614,324.161 227.955,323.626 228.367 L 322.651 229.116 324.722 230.390 C 334.690 236.523,332.091 251.109,320.308 255.163 C 316.630 256.428,306.244 257.329,304.233 256.557 C 303.408 256.241,303.290 247.953,304.100 247.287 C 304.375 247.061,307.120 246.810,310.200 246.728 C 318.772 246.501,321.842 244.156,320.431 238.914 C 319.342 234.873,317.359 234.257,305.000 234.129 C 299.500 234.072,294.595 234.019,294.100 234.012 L 293.200 234.000 293.200 218.067 C 293.200 209.303,293.335 201.997,293.500 201.831 C 294.123 201.203,315.233 201.829,317.766 202.550 M355.932 202.624 C 361.756 204.363,366.800 210.663,366.800 216.200 L 366.800 217.625 362.162 217.513 L 357.524 217.400 356.994 215.855 C 354.786 209.424,344.382 209.888,343.482 216.457 C 342.741 221.858,344.694 223.609,352.774 224.789 C 372.155 227.618,371.180 256.324,351.700 256.395 L 350.400 256.400 350.400 251.808 L 350.400 247.215 351.500 246.951 C 355.221 246.057,357.196 243.881,357.199 240.674 C 357.202 236.310,354.529 234.355,347.065 233.261 C 338.041 231.938,332.406 224.518,333.653 215.600 C 335.043 205.662,345.569 199.530,355.932 202.624 M271.996 208.900 C 273.386 212.475,274.784 216.030,275.103 216.800 C 276.041 219.070,276.280 219.685,277.122 222.000 C 277.970 224.329,282.567 236.169,283.413 238.200 C 284.064 239.764,287.600 248.909,289.136 253.000 C 290.333 256.189,290.334 256.201,289.496 256.514 C 288.709 256.808,280.459 256.655,280.263 256.343 C 279.894 255.754,279.075 253.690,278.065 250.800 C 269.630 226.676,269.602 226.600,268.794 226.600 C 268.241 226.600,267.644 228.112,264.217 238.200 C 263.021 241.720,261.480 246.130,260.792 248.000 C 260.105 249.870,259.160 252.523,258.694 253.896 C 257.930 256.145,257.718 256.417,256.561 256.634 C 255.047 256.918,248.101 256.634,247.741 256.274 C 247.470 256.003,247.497 255.922,250.131 249.200 C 251.122 246.670,253.014 241.810,254.335 238.400 C 255.656 234.990,257.853 229.320,259.218 225.800 C 260.582 222.280,262.913 216.250,264.397 212.400 C 268.084 202.838,268.282 202.400,268.913 202.400 C 269.259 202.400,270.418 204.844,271.996 208.900 M51.867 211.467 C 51.261 212.072,51.574 223.481,52.211 224.009 C 53.369 224.971,62.404 224.288,64.940 223.047 C 70.068 220.538,69.296 213.735,63.666 211.816 C 61.820 211.187,52.424 210.909,51.867 211.467 M303.467 211.467 C 303.320 211.613,303.200 214.490,303.200 217.859 L 303.200 223.985 304.227 224.243 C 305.669 224.605,313.497 224.164,315.288 223.621 C 321.525 221.727,321.278 213.588,314.926 211.685 C 313.238 211.179,303.932 211.002,303.467 211.467 M61.310 212.057 C 66.610 212.933,69.115 216.854,66.784 220.626 C 65.496 222.710,63.161 223.400,57.400 223.400 L 52.600 223.400 52.488 217.831 C 52.406 213.709,52.506 212.181,52.876 211.953 C 53.559 211.531,58.492 211.592,61.310 212.057 M314.437 212.233 C 318.497 213.157,320.490 218.393,317.835 221.163 C 316.039 223.039,313.636 223.647,308.554 223.514 L 304.200 223.400 304.088 218.020 C 304.026 215.061,304.076 212.380,304.198 212.061 C 304.420 211.481,311.667 211.603,314.437 212.233 M140.000 221.122 C 138.862 221.497,138.812 222.261,138.806 239.286 C 138.800 255.772,138.827 256.386,139.574 256.786 C 140.683 257.380,149.315 257.325,149.920 256.720 C 150.484 256.156,150.615 222.558,150.056 221.677 C 149.721 221.149,141.322 220.685,140.000 221.122 M149.600 239.175 L 149.600 256.351 147.900 256.606 C 145.922 256.903,140.500 256.634,140.084 256.218 C 139.745 255.879,139.465 224.197,139.790 222.900 C 140.008 222.029,140.171 222.000,144.808 222.000 L 149.600 222.000 149.600 239.175 M214.880 246.480 C 214.086 247.274,214.223 256.646,215.033 256.957 C 215.855 257.273,243.920 257.264,245.100 256.948 C 246.154 256.665,246.523 247.483,245.520 246.480 C 245.164 246.124,241.209 246.000,230.200 246.000 C 219.191 246.000,215.236 246.124,214.880 246.480 M245.112 251.654 L 245.225 256.307 244.205 256.563 C 242.956 256.877,217.275 256.849,216.066 256.533 C 215.195 256.305,214.665 247.868,215.472 247.062 C 215.621 246.912,222.326 246.837,230.372 246.895 L 245.000 247.000 245.112 251.654 M118.829 280.774 C 118.165 281.194,118.082 295.042,118.740 295.700 C 119.733 296.693,120.997 295.827,121.221 294.000 L 121.441 292.200 121.763 293.686 C 122.144 295.451,122.823 296.109,124.078 295.931 C 125.090 295.787,125.145 295.302,124.453 292.614 C 124.166 291.495,124.174 290.872,124.484 290.499 C 125.152 289.693,125.374 284.340,124.810 282.630 C 124.153 280.640,120.723 279.575,118.829 280.774 M130.417 280.781 C 129.645 281.269,129.493 295.013,130.253 295.644 C 131.206 296.435,135.800 295.902,135.800 295.000 C 135.800 294.364,135.492 294.175,134.300 294.076 L 132.800 293.952 132.800 291.602 C 132.800 289.337,132.839 289.249,133.900 289.127 C 134.691 289.036,135.000 288.775,135.000 288.200 C 135.000 287.625,134.691 287.364,133.900 287.273 C 132.290 287.088,132.167 282.800,133.771 282.800 C 135.290 282.800,136.303 281.611,135.368 280.927 C 134.545 280.325,131.290 280.229,130.417 280.781 M141.317 280.719 C 140.797 281.050,140.494 294.782,140.989 295.582 C 141.570 296.523,146.258 296.076,146.954 295.014 C 148.144 293.198,147.884 282.647,146.618 281.382 C 145.615 280.378,142.471 279.986,141.317 280.719 M152.970 280.849 C 152.636 281.389,152.696 295.108,153.034 295.655 C 153.319 296.116,158.291 296.099,158.578 295.636 C 159.039 294.890,158.291 294.042,157.066 293.923 C 155.294 293.751,155.060 289.611,156.800 289.200 C 158.236 288.861,158.162 287.442,156.700 287.273 C 154.833 287.059,155.016 282.907,156.900 282.725 C 157.987 282.621,158.200 282.436,158.200 281.600 C 158.200 280.458,153.618 279.800,152.970 280.849 M163.817 280.773 C 163.470 281.333,163.429 295.000,163.772 295.555 C 165.032 297.593,166.630 295.339,166.308 291.979 C 166.110 289.918,166.381 289.401,167.800 289.138 C 169.052 288.905,168.841 287.428,167.534 287.277 C 165.494 287.041,165.730 283.159,167.806 282.799 C 168.756 282.634,169.000 282.389,169.000 281.596 C 169.000 280.524,164.420 279.797,163.817 280.773 M174.448 280.762 C 173.702 281.234,173.544 295.056,174.278 295.665 C 176.239 297.292,176.598 296.218,176.641 288.600 C 176.686 280.607,176.386 279.534,174.448 280.762 M182.491 280.735 C 182.102 280.982,182.007 282.800,182.091 288.429 L 182.200 295.800 183.400 295.800 C 184.556 295.800,184.605 295.726,184.731 293.800 L 184.862 291.800 185.531 293.800 C 186.135 295.607,186.316 295.800,187.400 295.800 L 188.600 295.800 188.709 288.330 C 188.814 281.079,188.793 280.852,187.990 280.597 C 186.846 280.234,186.002 281.058,185.991 282.549 C 185.982 283.799,185.982 283.798,185.211 282.100 C 184.447 280.418,183.634 280.010,182.491 280.735 M194.594 280.810 C 193.761 282.157,194.265 295.801,195.152 295.931 C 197.039 296.207,197.200 295.603,197.200 288.231 C 197.200 283.420,197.056 281.216,196.720 280.880 C 196.132 280.292,194.938 280.253,194.594 280.810 M202.917 280.719 C 202.144 281.210,202.138 295.274,202.910 295.761 C 204.167 296.553,204.799 295.739,204.812 293.313 C 204.826 290.745,205.522 291.159,205.896 293.957 C 206.002 294.751,206.294 295.532,206.544 295.694 C 207.283 296.170,208.798 296.042,208.825 295.500 C 208.838 295.225,208.837 291.857,208.821 288.016 C 208.792 280.833,208.584 279.836,207.289 280.653 C 206.572 281.105,206.532 281.226,206.450 283.200 C 206.375 284.999,205.600 284.647,205.600 282.814 C 205.600 280.880,204.282 279.851,202.917 280.719 M215.741 280.797 C 214.427 281.327,214.139 283.895,214.360 293.071 C 214.455 297.016,220.280 297.379,221.010 293.486 C 221.791 289.323,220.231 286.514,217.934 287.948 C 217.248 288.377,217.200 288.223,217.200 285.603 C 217.200 281.844,218.066 281.838,218.488 285.596 C 218.727 287.725,221.200 286.591,221.200 284.352 C 221.200 281.169,218.759 279.580,215.741 280.797 M233.067 280.667 C 232.530 281.203,232.821 282.383,233.590 282.795 C 234.317 283.184,234.388 283.715,234.490 289.509 L 234.600 295.800 235.800 295.800 L 237.000 295.800 237.110 289.324 C 237.212 283.277,237.272 282.831,238.010 282.597 C 238.954 282.297,239.060 280.985,238.167 280.643 C 237.313 280.315,233.400 280.333,233.067 280.667 M243.867 280.902 C 243.255 281.349,243.193 282.185,243.290 288.602 L 243.400 295.800 244.700 295.925 C 246.123 296.063,246.147 295.990,246.029 291.800 C 246.005 290.920,246.168 289.930,246.392 289.600 C 247.144 288.493,247.641 290.010,247.475 292.907 C 247.312 295.753,247.952 296.565,249.799 295.856 C 250.675 295.520,250.694 281.542,249.819 280.816 C 248.400 279.638,247.640 280.661,247.516 283.917 C 247.344 288.469,246.143 288.661,246.038 284.154 C 245.947 280.215,245.573 279.654,243.867 280.902 M255.714 280.900 C 255.499 281.181,255.346 284.558,255.366 288.600 L 255.402 295.800 258.001 295.903 C 261.570 296.045,263.277 294.258,259.892 293.923 C 257.698 293.705,257.385 289.373,259.546 289.122 C 261.024 288.951,261.027 287.450,259.550 287.278 C 258.652 287.174,258.468 286.921,258.281 285.529 C 257.989 283.349,258.237 282.868,259.731 282.723 C 261.098 282.590,261.720 281.376,260.739 280.754 C 259.903 280.224,256.149 280.333,255.714 280.900 M274.040 280.952 C 273.723 281.334,273.615 283.720,273.691 288.652 L 273.800 295.800 274.746 295.934 C 275.267 296.007,275.867 295.893,276.081 295.679 C 276.711 295.049,276.567 281.152,275.926 280.746 C 275.160 280.260,274.560 280.326,274.040 280.952 M281.467 280.667 C 280.930 281.203,281.221 282.383,281.990 282.795 C 282.717 283.184,282.788 283.715,282.890 289.509 L 283.000 295.800 284.200 295.800 L 285.400 295.800 285.600 289.544 C 285.794 283.488,285.832 283.262,286.787 282.490 C 288.356 281.221,287.347 280.400,284.218 280.400 C 282.851 280.400,281.613 280.520,281.467 280.667 M123.600 281.842 C 124.337 282.566,124.321 289.731,123.581 290.623 C 123.227 291.049,123.267 291.619,123.752 293.040 C 124.100 294.063,124.293 295.050,124.180 295.232 C 123.876 295.723,122.800 295.203,122.800 294.565 C 122.800 291.221,120.534 290.248,120.321 293.501 C 120.254 294.520,119.978 295.411,119.700 295.502 C 119.312 295.630,119.200 294.047,119.200 288.461 C 119.200 281.309,119.207 281.254,120.100 281.075 C 121.376 280.819,122.898 281.153,123.600 281.842 M134.303 281.500 C 134.396 281.786,134.131 282.000,133.682 282.000 C 131.594 282.000,131.228 287.288,133.300 287.527 C 133.905 287.596,134.400 287.899,134.400 288.200 C 134.400 288.501,133.905 288.804,133.300 288.873 C 132.226 288.997,132.200 289.061,132.200 291.600 L 132.200 294.200 133.500 294.325 C 135.733 294.541,135.151 295.600,132.800 295.600 L 130.800 295.600 130.800 288.433 C 130.800 283.079,130.926 281.213,131.300 281.056 C 132.169 280.689,134.132 280.979,134.303 281.500 M237.541 281.434 C 237.938 281.561,237.860 281.790,237.243 282.303 C 236.468 282.947,236.397 283.462,236.302 289.101 C 236.163 297.417,235.434 297.201,235.290 288.801 C 235.201 283.598,235.074 282.400,234.614 282.400 C 233.909 282.400,233.468 281.737,233.808 281.188 C 234.036 280.818,236.015 280.949,237.541 281.434 M260.000 281.647 C 260.000 281.841,259.653 282.000,259.229 282.000 C 257.574 282.000,257.285 282.929,257.580 287.300 C 257.591 287.465,258.050 287.600,258.600 287.600 C 259.222 287.600,259.600 287.827,259.600 288.200 C 259.600 288.536,259.243 288.800,258.790 288.800 C 257.594 288.800,256.990 291.357,257.544 294.075 C 257.575 294.226,258.185 294.406,258.900 294.475 C 260.887 294.666,260.253 295.400,258.100 295.400 L 256.200 295.400 256.200 288.418 L 256.200 281.436 257.200 281.196 C 258.412 280.906,260.000 281.161,260.000 281.647 M297.447 281.422 C 297.164 282.159,298.278 282.682,298.870 282.090 C 299.158 281.802,299.039 281.542,298.483 281.244 C 297.854 280.908,297.629 280.947,297.447 281.422 M146.284 282.400 C 146.972 283.764,146.970 293.040,146.282 294.400 C 145.845 295.265,145.507 295.400,143.788 295.400 L 141.800 295.400 141.691 288.279 L 141.581 281.158 143.681 281.279 C 145.457 281.381,145.858 281.554,146.284 282.400 M157.600 281.600 C 157.600 281.820,157.195 282.003,156.700 282.006 C 154.372 282.022,153.802 287.262,156.100 287.527 C 156.705 287.596,157.200 287.899,157.200 288.200 C 157.200 288.501,156.705 288.804,156.100 288.873 C 154.328 289.077,154.389 294.085,156.167 294.396 C 158.382 294.783,157.896 295.657,155.541 295.522 L 153.400 295.400 153.290 288.815 C 153.229 285.194,153.268 281.999,153.377 281.715 C 153.613 281.100,157.600 280.991,157.600 281.600 M168.000 281.550 C 168.000 281.743,167.478 282.004,166.840 282.132 C 165.775 282.345,165.668 282.525,165.540 284.325 C 165.350 286.983,165.506 287.530,166.493 287.675 C 167.630 287.843,167.909 288.800,166.821 288.800 C 165.734 288.800,165.508 289.446,165.448 292.723 C 165.411 294.814,165.269 295.400,164.800 295.400 C 164.204 295.400,163.644 283.104,164.177 281.715 C 164.400 281.135,168.000 280.979,168.000 281.550 M175.909 288.267 C 175.829 293.485,175.669 295.378,175.300 295.500 C 174.912 295.629,174.800 294.042,174.800 288.433 C 174.800 282.222,174.886 281.200,175.409 281.200 C 175.936 281.200,176.004 282.156,175.909 288.267 M184.688 283.500 C 184.992 285.157,184.985 286.024,184.665 286.600 C 184.421 287.040,184.127 289.200,184.011 291.400 C 183.679 297.704,183.016 296.117,182.890 288.716 C 182.773 281.871,182.847 281.200,183.721 281.200 C 184.069 281.200,184.418 282.030,184.688 283.500 M187.910 288.630 C 187.774 297.013,186.357 298.238,185.863 290.400 C 185.825 289.789,185.994 289.439,186.300 289.500 C 186.673 289.575,186.800 288.600,186.800 285.667 C 186.800 283.503,186.923 281.610,187.073 281.460 C 187.812 280.721,188.011 282.426,187.910 288.630 M196.141 283.300 C 196.740 288.289,196.252 295.672,195.346 295.324 C 194.766 295.101,194.502 282.031,195.067 281.467 C 195.656 280.878,195.900 281.294,196.141 283.300 M204.854 282.300 C 205.168 283.095,205.166 284.017,204.844 285.624 C 204.600 286.847,204.400 289.483,204.400 291.481 C 204.400 294.247,204.265 295.166,203.833 295.332 C 203.016 295.645,202.983 295.299,203.125 287.900 C 203.258 280.961,203.726 279.445,204.854 282.300 M208.400 288.176 C 208.400 295.093,208.167 296.326,207.065 295.226 C 206.582 294.743,206.576 293.471,207.016 285.700 C 207.213 282.212,207.398 281.200,207.835 281.200 C 208.300 281.200,208.400 282.436,208.400 288.176 M219.326 281.700 C 220.303 282.420,220.436 285.320,219.500 285.514 C 218.927 285.632,218.800 285.372,218.800 284.072 C 218.800 282.431,218.178 281.803,217.000 282.255 C 216.232 282.550,216.105 293.545,216.861 294.301 C 218.329 295.769,219.610 291.461,218.386 289.174 C 218.029 288.508,218.107 288.400,218.943 288.400 C 220.127 288.400,220.237 288.714,220.182 291.955 C 220.102 296.655,215.278 297.343,215.157 292.671 C 214.953 284.850,215.113 282.253,215.828 281.730 C 216.742 281.062,218.440 281.047,219.326 281.700 M245.335 281.900 C 245.439 282.285,245.477 283.638,245.419 284.907 C 245.323 287.036,245.387 287.232,246.256 287.450 C 248.104 287.914,248.400 287.463,248.400 284.179 C 248.400 281.920,248.529 281.176,248.900 281.300 C 249.605 281.535,249.622 295.259,248.917 295.494 C 248.570 295.610,248.400 294.711,248.317 292.328 C 248.206 289.172,248.151 288.993,247.254 288.866 C 245.805 288.661,245.440 289.357,245.419 292.367 C 245.399 295.214,245.178 295.881,244.411 295.407 C 243.964 295.131,243.846 282.868,244.279 281.738 C 244.568 280.985,245.110 281.068,245.335 281.900 M275.600 288.387 C 275.600 294.612,275.520 295.544,275.000 295.345 C 274.498 295.152,274.400 293.972,274.400 288.157 C 274.400 282.240,274.490 281.200,275.000 281.200 C 275.511 281.200,275.600 282.265,275.600 288.387 M286.400 281.504 C 286.400 281.671,286.045 282.030,285.610 282.301 C 284.886 282.753,284.811 283.320,284.710 289.097 C 284.643 292.959,284.445 295.400,284.200 295.400 C 283.955 295.400,283.757 292.959,283.690 289.097 C 283.589 283.320,283.514 282.753,282.790 282.301 C 281.497 281.493,281.873 281.200,284.200 281.200 C 285.410 281.200,286.400 281.337,286.400 281.504 M301.694 281.682 C 301.782 281.947,302.472 282.414,303.227 282.720 L 304.600 283.277 303.630 282.239 C 302.636 281.173,301.407 280.820,301.694 281.682 M294.000 281.951 C 294.000 282.144,294.270 282.526,294.600 282.800 C 294.930 283.074,295.200 283.474,295.200 283.688 C 295.200 284.009,297.471 286.400,297.776 286.400 C 297.826 286.400,297.867 286.130,297.867 285.800 C 297.867 285.470,297.739 285.200,297.582 285.200 C 297.425 285.200,297.070 284.653,296.793 283.984 C 296.142 282.411,294.000 280.853,294.000 281.951 M120.834 282.526 C 119.981 283.379,120.287 289.510,121.196 289.799 C 122.559 290.231,122.800 289.665,122.800 286.023 C 122.800 282.395,122.140 281.220,120.834 282.526 M143.043 282.633 C 142.909 282.981,142.800 285.659,142.800 288.584 C 142.800 294.289,143.124 295.329,144.570 294.271 C 145.497 293.594,145.646 282.929,144.738 282.353 C 143.917 281.833,143.311 281.933,143.043 282.633 M122.075 285.932 C 122.116 287.397,121.950 288.610,121.672 288.888 C 121.309 289.251,121.200 288.581,121.200 286.000 C 121.200 282.045,121.966 281.985,122.075 285.932 M144.647 283.847 C 145.035 285.389,144.554 293.206,144.041 293.719 C 143.720 294.040,143.600 292.620,143.600 288.480 C 143.600 283.086,144.006 281.290,144.647 283.847 M304.617 284.877 C 304.941 286.353,305.663 287.200,306.596 287.200 C 307.106 287.200,306.966 286.805,305.957 285.400 C 304.420 283.260,304.247 283.193,304.617 284.877 M306.000 289.582 C 306.000 290.012,305.595 290.805,305.100 291.344 C 304.605 291.883,303.984 292.566,303.719 292.862 C 303.455 293.158,302.960 293.632,302.619 293.916 C 301.859 294.549,301.815 295.200,302.532 295.200 C 302.825 295.200,303.655 294.378,304.377 293.372 C 305.099 292.367,306.116 291.085,306.637 290.522 C 307.613 289.470,307.589 288.800,306.576 288.800 C 306.259 288.800,306.000 289.152,306.000 289.582 M218.386 292.257 C 218.394 293.016,218.162 293.606,217.800 293.745 C 217.305 293.934,217.202 293.538,217.214 291.487 C 217.228 289.128,217.258 289.052,217.800 290.000 C 218.114 290.550,218.378 291.566,218.386 292.257 M296.556 291.122 C 295.270 292.765,294.938 294.109,295.861 293.933 C 296.268 293.855,296.656 293.402,296.724 292.925 C 296.792 292.448,297.107 291.843,297.424 291.580 C 298.025 291.081,298.220 289.984,297.700 290.022 C 297.535 290.034,297.020 290.529,296.556 291.122 M298.159 294.467 C 297.758 295.115,298.441 295.664,299.036 295.170 C 299.346 294.913,299.600 294.574,299.600 294.418 C 299.600 294.020,298.410 294.061,298.159 294.467 " stroke="none" fill="#989797" fill-rule="evenodd"></path></g></svg>